<?xml version="1.0" encoding="UTF-8" standalone="no"?>
<svg
   version="1.1"
   id="Layer_1"
   x="0px"
   y="0px"
   viewBox="0 0 16 16"
   enable-background="new 0 0 64 64"
   xml:space="preserve"
   sodipodi:docname="deployment-config.svg"
   width="16"
   height="16"
   inkscape:version="1.1.2 (0a00cf5339, 2022-02-04)"
   xmlns:inkscape="http://www.inkscape.org/namespaces/inkscape"
   xmlns:sodipodi="http://sodipodi.sourceforge.net/DTD/sodipodi-0.dtd"
   xmlns="http://www.w3.org/2000/svg"
   xmlns:svg="http://www.w3.org/2000/svg"
   xmlns:rdf="http://www.w3.org/1999/02/22-rdf-syntax-ns#"
   xmlns:cc="http://creativecommons.org/ns#"
   xmlns:dc="http://purl.org/dc/elements/1.1/"><metadata
   id="metadata23"><rdf:RDF><cc:Work
       rdf:about=""><dc:format>image/svg+xml</dc:format><dc:type
         rdf:resource="http://purl.org/dc/dcmitype/StillImage" /></cc:Work></rdf:RDF></metadata><defs
   id="defs21"><linearGradient
     id="linearGradient53185"
     inkscape:swatch="solid"><stop
       style="stop-color:#c5c5c5;stop-opacity:1;"
       offset="0"
       id="stop53183" /></linearGradient></defs><sodipodi:namedview
   pagecolor="#ffffff"
   bordercolor="#666666"
   borderopacity="1"
   objecttolerance="10"
   gridtolerance="10"
   guidetolerance="10"
   inkscape:pageopacity="0"
   inkscape:pageshadow="2"
   inkscape:window-width="2400"
   inkscape:window-height="1299"
   id="namedview19"
   showgrid="false"
   inkscape:zoom="44.547727"
   inkscape:cx="14.983929"
   inkscape:cy="9.3046274"
   inkscape:window-x="26"
   inkscape:window-y="23"
   inkscape:window-maximized="0"
   inkscape:current-layer="Layer_1"
   inkscape:pagecheckerboard="0" />

<text
   xml:space="preserve"
   style="font-style:normal;font-weight:bold;font-size:10.6667px;line-height:1.25;font-family:sans-serif;fill:#000000;fill-opacity:1;stroke:none;-inkscape-font-specification:'sans-serif, Bold';font-stretch:normal;font-variant:normal;font-variant-ligatures:normal;font-variant-caps:normal;font-variant-numeric:normal;font-variant-east-asian:normal"
   x="4.1040077"
   y="7.4835467"
   id="text14482"><tspan
     sodipodi:role="line"
     id="tspan14480"></tspan></text><path
   style="opacity:1;fill:#c5c5c5;fill-opacity:1;fill-rule:nonzero;stroke:#000000;stroke-width:0;stroke-miterlimit:4;stroke-dasharray:none;stroke-opacity:1"
   d="M 1.8446684,6.6583195 V 1.8055054 l 1.8351104,0.00913 c 1.7319806,0.00862 1.8546641,0.011868 2.1830519,0.057778 1.5653463,0.2188445 2.5521915,0.6917046 3.2234345,1.5445515 0.4511494,0.5732068 0.7183214,1.2775094 0.8545064,2.2525993 0.05561,0.3981629 0.05581,1.5277819 3.48e-4,1.939598 -0.327029,2.4281618 -1.6694114,3.5880578 -4.4599021,3.8536088 -0.1447533,0.01378 -1.000159,0.02979 -1.9473496,0.03646 l -1.6891995,0.0119 z M 5.7505915,10.374765 C 6.6576728,10.226572 7.2710561,9.9503013 7.7293523,9.4835193 8.1864092,9.0179988 8.4533132,8.3978551 8.5834402,7.4990674 8.6298902,7.1782299 8.6226202,6.0411032 8.5719802,5.7056221 8.3342762,4.1310244 7.5466003,3.2805259 6.0445062,2.9765626 5.6086465,2.8883622 5.4800374,2.8804747 4.3083182,2.8700823 L 3.1466427,2.859779 v 3.7860983 3.7860997 l 1.1841233,-0.0094 c 0.9794603,-0.0077 1.2248618,-0.01601 1.4198255,-0.04786 z"
   id="path52104" /><path
   style="opacity:1;fill:#c5c5c5;fill-opacity:1;fill-rule:nonzero;stroke:#000000;stroke-width:0;stroke-miterlimit:4;stroke-dasharray:none;stroke-opacity:1"
   d="m 10.602919,14.329813 c -0.03087,-0.0052 -0.147034,-0.02038 -0.25815,-0.03383 C 9.8511763,14.236235 9.3772219,14.098127 8.92682,13.882798 8.0525566,13.46483 7.4096899,12.8145 6.9768955,11.910237 6.6158725,11.15593 6.450658,10.341466 6.4503383,9.3144483 6.4498731,7.8197388 6.8482116,6.6237333 7.646565,5.7227948 c 0.6945166,-0.783759 1.6432493,-1.251021 2.83289,-1.395232 0.291814,-0.035374 1.107952,-0.035392 1.380542,-3.08e-5 0.825462,0.1070827 1.556897,0.3589722 2.2031,0.7586972 l 0.198819,0.1229844 V 5.8817897 6.5543659 L 14.054273,6.381483 C 13.156822,5.6342663 12.094881,5.2867241 10.945338,5.3640189 9.1823626,5.4825607 8.154494,6.4874867 7.8703941,8.3703288 c -0.057,0.3777604 -0.05664,1.5428031 5.899e-4,1.9093772 0.2769311,1.773824 1.2035762,2.769103 2.769234,2.974343 0.296225,0.03883 0.854065,0.0441 1.130577,0.01067 0.809173,-0.09781 1.563532,-0.420326 2.208278,-0.944108 0.09754,-0.07924 0.201076,-0.162587 0.23009,-0.185223 l 0.05275,-0.04115 v 0.661921 0.661922 l -0.173971,0.111501 c -0.389877,0.249878 -0.945141,0.494923 -1.410453,0.622451 -0.520081,0.142538 -0.76259,0.173303 -1.423586,0.180596 -0.327177,0.0036 -0.620122,0.0023 -0.650987,-0.0028 z"
   id="path57205" /></svg>
