<?xml version="1.0" encoding="UTF-8" standalone="no"?>
<svg
   version="1.1"
   id="Layer_1"
   x="0px"
   y="0px"
   viewBox="0 0 16 16"
   enable-background="new 0 0 64 64"
   xml:space="preserve"
   sodipodi:docname="deployment.svg"
   width="16"
   height="16"
   inkscape:version="1.1.2 (0a00cf5339, 2022-02-04)"
   xmlns:inkscape="http://www.inkscape.org/namespaces/inkscape"
   xmlns:sodipodi="http://sodipodi.sourceforge.net/DTD/sodipodi-0.dtd"
   xmlns="http://www.w3.org/2000/svg"
   xmlns:svg="http://www.w3.org/2000/svg"
   xmlns:rdf="http://www.w3.org/1999/02/22-rdf-syntax-ns#"
   xmlns:cc="http://creativecommons.org/ns#"
   xmlns:dc="http://purl.org/dc/elements/1.1/"><metadata
   id="metadata23"><rdf:RDF><cc:Work
       rdf:about=""><dc:format>image/svg+xml</dc:format><dc:type
         rdf:resource="http://purl.org/dc/dcmitype/StillImage" /></cc:Work></rdf:RDF></metadata><defs
   id="defs21"><linearGradient
     id="linearGradient53185"
     inkscape:swatch="solid"><stop
       style="stop-color:#c5c5c5;stop-opacity:1;"
       offset="0"
       id="stop53183" /></linearGradient></defs><sodipodi:namedview
   pagecolor="#ffffff"
   bordercolor="#666666"
   borderopacity="1"
   objecttolerance="10"
   gridtolerance="10"
   guidetolerance="10"
   inkscape:pageopacity="0"
   inkscape:pageshadow="2"
   inkscape:window-width="2400"
   inkscape:window-height="1299"
   id="namedview19"
   showgrid="false"
   inkscape:zoom="44.547727"
   inkscape:cx="4.6803735"
   inkscape:cy="6.3302893"
   inkscape:window-x="26"
   inkscape:window-y="23"
   inkscape:window-maximized="0"
   inkscape:current-layer="Layer_1"
   inkscape:pagecheckerboard="0" />

<text
   xml:space="preserve"
   style="font-style:normal;font-weight:bold;font-size:10.6667px;line-height:1.25;font-family:sans-serif;fill:#000000;fill-opacity:1;stroke:none;-inkscape-font-specification:'sans-serif, Bold';font-stretch:normal;font-variant:normal;font-variant-ligatures:normal;font-variant-caps:normal;font-variant-numeric:normal;font-variant-east-asian:normal"
   x="4.1040077"
   y="7.4835467"
   id="text14482"><tspan
     sodipodi:role="line"
     id="tspan14480"></tspan></text><text
   xml:space="preserve"
   style="font-style:normal;font-variant:normal;font-weight:normal;font-stretch:normal;font-size:13.3333px;line-height:1.25;font-family:sans-serif;-inkscape-font-specification:'sans-serif, Normal';font-variant-ligatures:normal;font-variant-caps:normal;font-variant-numeric:normal;font-variant-east-asian:normal;fill:#000000;fill-opacity:1;stroke:none;stroke-opacity:1"
   x="3.0164278"
   y="12.752475"
   id="text21894"><tspan
     sodipodi:role="line"
     id="tspan21892"
     x="3.0164278"
     y="12.752475">D</tspan></text><path
   style="opacity:1;fill:#c5c5c5;fill-opacity:1;fill-rule:nonzero;stroke:#000000;stroke-width:0;stroke-miterlimit:4;stroke-dasharray:none;stroke-opacity:1"
   d="M 4.332432,7.9026836 V 3.0498694 l 1.8351105,0.00913 c 1.7319806,0.00862 1.8546641,0.011868 2.1830519,0.057778 1.5653463,0.2188445 2.5521916,0.6917047 3.2234346,1.5445516 0.451149,0.5732068 0.718321,1.2775094 0.854506,2.2525993 0.05561,0.3981629 0.05581,1.5277819 3.48e-4,1.939598 -0.327029,2.4281617 -1.669411,3.5880567 -4.4599018,3.8536077 -0.1447533,0.01378 -1.000159,0.02979 -1.9473496,0.03646 l -1.6891996,0.0119 z m 3.9059232,3.7164444 c 0.9070813,-0.148192 1.5204646,-0.424463 1.9787608,-0.891245 0.457057,-0.46552 0.723961,-1.0856638 0.854088,-1.9844515 0.04645,-0.3208375 0.03918,-1.4579642 -0.01146,-1.7934453 C 10.82204,5.3753885 10.034364,4.52489 8.5322699,4.2209267 8.0964102,4.1327263 7.9678011,4.1248388 6.7960819,4.1144464 L 5.6344064,4.1041431 V 7.8902414 11.67634 l 1.1841233,-0.0094 C 7.79799,11.65924 8.0433915,11.65093 8.2383552,11.61908 Z"
   id="path52104" /></svg>
