<svg class="img-fluid cloud-illustration" xmlns="http://www.w3.org/2000/svg" xmlns:xlink="http://www.w3.org/1999/xlink" width="600" viewBox="0 0 2001 2002.4">
    <defs>
        <radialGradient id="radial-gradient" cx="1000.5" cy="1001.9" r="1000.5" gradientUnits="userSpaceOnUse">
            <stop offset="0" stop-color="#282828"></stop>
            <stop offset="0.34" stop-color="#252525" stop-opacity="0.92"></stop>
            <stop offset="0.63" stop-color="#1a1a1a" stop-opacity="0.65"></stop>
            <stop offset="0.9" stop-color="#090909" stop-opacity="0.22"></stop>
            <stop offset="1" stop-opacity="0"></stop>
        </radialGradient>
        <radialGradient id="radial-gradient-2" cx="834.02" cy="670.91" r="330.91" gradientUnits="userSpaceOnUse">
            <stop offset="0" stop-color="#fff"></stop>
            <stop offset="1" stop-color="#e6e6e6"></stop>
        </radialGradient>
        <radialGradient id="radial-gradient-3" cx="723.06" cy="805.91" r="176.36" xlink:href="#radial-gradient-2"></radialGradient>
        <radialGradient id="radial-gradient-4" cx="1164.84" cy="806.66" r="174.13" xlink:href="#radial-gradient-2"></radialGradient>
        <radialGradient id="radial-gradient-5" cx="1017.88" cy="744.57" r="243.69" xlink:href="#radial-gradient-2"></radialGradient>
        <clipPath id="clip-path">
            <path d="M941,576.4l87.8-88.5,380.7,383.6-87.8,88.6ZM1054.5,462l380.7,383.7,87.9-88.6L1142.3,373.5ZM860.9,1424.4l87.9-88.6L568.1,952.1l-87.9,88.6ZM974.5,1310l87.8-88.6L681.6,837.8l-87.8,88.5Z" style="fill: none;"></path>
        </clipPath>
        <linearGradient id="linear-gradient" x1="982" y1="899.89" x2="1017.53" y2="935.43" xlink:href="#radial-gradient-2"></linearGradient>
        <clipPath id="clip-path-2">
            <path d="M697.8,1260.3h0l664.4-664.7-40.3-40.6L657.5,1219.6h0a28.9,28.9,0,0,0,0,40.6A28.4,28.4,0,0,0,697.8,1260.3Z" style="fill: none;"></path>
        </clipPath>
        <linearGradient id="linear-gradient-2" x1="-4634.43" y1="-930.15" x2="-4634.43" y2="-766.48" gradientTransform="translate(3699.5 4812.5) rotate(45)" xlink:href="#radial-gradient-2"></linearGradient>
        <radialGradient id="radial-gradient-10" cx="847.22" cy="1024.1" r="330.91" xlink:href="#radial-gradient-2"></radialGradient>
        <radialGradient id="radial-gradient-11" cx="736.26" cy="1159.1" r="176.36" xlink:href="#radial-gradient-2"></radialGradient>
        <radialGradient id="radial-gradient-12" cx="1178.05" cy="1159.85" r="174.13" xlink:href="#radial-gradient-2"></radialGradient>
        <radialGradient id="radial-gradient-13" cx="1031.08" cy="1097.76" r="243.69" xlink:href="#radial-gradient-2"></radialGradient>
        <radialGradient id="radial-gradient-14" cx="935.58" cy="717.19" r="209.12" gradientUnits="userSpaceOnUse">
            <stop offset="0" stop-color="#282828"></stop>
            <stop offset="1"></stop>
        </radialGradient>
        <radialGradient id="radial-gradient-15" cx="1008.74" cy="818.89" r="48.26" xlink:href="#radial-gradient-2"></radialGradient>
        <radialGradient id="radial-gradient-16" cx="1008.74" cy="774.61" r="53.03" xlink:href="#radial-gradient-2"></radialGradient>
        <radialGradient id="radial-gradient-17" cx="1785.72" cy="693.41" r="85.11" xlink:href="#radial-gradient-14"></radialGradient>
        <radialGradient id="radial-gradient-18" cx="1627.15" cy="627.63" r="160.17" xlink:href="#radial-gradient-14"></radialGradient>
        <radialGradient id="radial-gradient-19" cx="1716.48" cy="663.64" r="117.61" xlink:href="#radial-gradient-14"></radialGradient>
        <radialGradient id="radial-gradient-20" cx="1577.99" cy="689.95" r="85.68" xlink:href="#radial-gradient-14"></radialGradient>
        <radialGradient id="radial-gradient-21" cx="387.09" cy="692.04" r="85.11" xlink:href="#radial-gradient-14"></radialGradient>
        <radialGradient id="radial-gradient-22" cx="228.53" cy="626.26" r="160.17" xlink:href="#radial-gradient-14"></radialGradient>
        <radialGradient id="radial-gradient-23" cx="317.85" cy="662.26" r="117.61" xlink:href="#radial-gradient-14"></radialGradient>
        <radialGradient id="radial-gradient-24" cx="179.37" cy="688.58" r="85.68" xlink:href="#radial-gradient-14"></radialGradient>
        <radialGradient id="radial-gradient-25" cx="440.13" cy="906.36" r="209.12" xlink:href="#radial-gradient-14"></radialGradient>
        <radialGradient id="radial-gradient-26" cx="514.03" cy="977.61" r="51.36" xlink:href="#radial-gradient-2"></radialGradient>
        <radialGradient id="radial-gradient-27" cx="1437.47" cy="910.04" r="209.12" xlink:href="#radial-gradient-14"></radialGradient>
        <radialGradient id="radial-gradient-28" cx="1511.6" cy="981.65" r="49.32" xlink:href="#radial-gradient-2"></radialGradient>
        <linearGradient id="linear-gradient-7" x1="1000" x2="1000" y2="212.99" gradientUnits="userSpaceOnUse">
          <stop offset="0"></stop>
          <stop offset="0.93" stop-opacity="0.16"></stop>
          <stop offset="1" stop-opacity="0"></stop>
        </linearGradient>
        <linearGradient id="linear-gradient-8" x1="1000" y1="2000" x2="1000" y2="1787.01" xlink:href="#linear-gradient-7"></linearGradient>
    </defs>
    <g id="background">
        <rect width="2000" height="2000"></rect>
        <circle cx="1000.5" cy="1001.9" r="1000.5" style="fill: url(#radial-gradient);"></circle>
    </g>
    <g id="connected-cloud">
        <!-- BACK -->
        <path id="back-ellipse" d="M316.1,914c0-70.4,306.5-127.4,684.6-127.4s684.7,57,684.7,127.4" style="fill: none;stroke: red;stroke-width: 6;"></path>
        <!-- MIDDLE -->
        <g class="edge-performance" data-svg-origin="11.500090599060059 615.5999755859375" transform="matrix(1,0,0,1,0,1850)" style="opacity: 0; transform-origin: 0px 0px;">
            <g id="middle-edge" class="vision">
                <ellipse id="middle-edge-outer-ring" cx="1014.8" cy="912.3" rx="953.3" ry="216.4" style="fill: none;stroke: red;stroke-width: 6;"></ellipse>
                <g id="edge-dots">
                    <path d="M1873.1,798.1a50.3,50.3,0,1,1-50.3-50.3h0a50.3,50.3,0,0,1,50.3,50.3" style="fill: white;"></path>
                    <path d="M1564.4,1089.3a50.3,50.3,0,1,1-50.3-50.3h0a50.3,50.3,0,0,1,50.3,50.3" style="fill: white;"></path>
                    <path d="M112.3,913.3A50.4,50.4,0,1,1,62,863h0a50.3,50.3,0,0,1,50.3,50.3" style="fill: white;"></path>
                </g>
                <g id="edge-cloud">
                    <rect x="781.3" y="851.5" width="439.4" height="106.17" class="fill-gray-300"></rect>
                    <circle cx="944" cy="786.6" r="171" style="fill: url(#radial-gradient-2);"></circle>
                    <circle cx="781.3" cy="866.2" r="91.4" style="fill: url(#radial-gradient-3);"></circle>
                    <circle cx="1220.7" cy="866.2" r="91.4" style="fill: url(#radial-gradient-4);"></circle>
                    <circle cx="1096.8" cy="832.3" r="125.3" style="fill: url(#radial-gradient-5);"></circle>
                </g>
                <path id="edge-shadow" d="M1268.9,1319.8c0,13.4-120.2,24.2-268.4,24.2s-268.4-10.8-268.4-24.2,120.2-24.2,268.4-24.2,268.4,10.9,268.4,24.2"></path>
            </g>
            <g id="middle-iss" class="iss" data-svg-origin="341.70001220703125 373.5" transform="matrix(1,0,0,1,0,2000.4)" style="transform-origin: 0px 0px; opacity: 0;">
                <g id="back-iss-stars">
                    <circle class="fill-white" cx="357.5" cy="512.8" r="15.8"></circle>
                    <circle class="fill-white" cx="1577.5" cy="1204.8" r="15.8"></circle>
                    <circle class="fill-white" cx="586.5" cy="1492.8" r="15.8"></circle>
                    <circle class="fill-white" cx="803.5" cy="597.8" r="15.8"></circle>
                </g>
                <g id="middle-iss-station">
                    <polygon class="fill-gray-300" points="1409.5 871.5 1028.8 487.9 941 576.4 1321.7 960.1 1409.5 871.5"></polygon>
                    <polygon class="fill-gray-300" points="1523.1 757.1 1142.3 373.5 1054.5 462 1435.2 845.7 1523.1 757.1"></polygon>
                    <polygon class="fill-gray-300" points="948.8 1335.8 568.1 952.1 480.2 1040.7 860.9 1424.4 948.8 1335.8"></polygon>
                    <polygon class="fill-gray-300" points="1062.3 1221.4 681.6 837.8 593.8 926.3 974.5 1310 1062.3 1221.4"></polygon>
                    <g style="clip-path: url(#clip-path);"><path d="M708.2,1329l664.6-722.9-40.3-40.6L668.1,1230.2h0Z"></path></g>
                    <path d="M697.8,1260.3h0l664.4-664.7-40.3-40.6L657.5,1219.6h0a28.9,28.9,0,0,0,0,40.6A28.4,28.4,0,0,0,697.8,1260.3Z" style="fill: url(#linear-gradient);"></path>
                    <ellipse class="fill-white" cx="1342.1" cy="575.2" rx="28.5" ry="28.7"></ellipse>
                    <g style="clip-path: url(#clip-path-2);"><path d="M1144.1,957.5h0l-200.5-202S840.6,927.8,902.2,958c53,26,23,90,23,90s187.4,56.6,218.9,24.7A81.8,81.8,0,0,0,1144.1,957.5Z"></path></g>
                    <path d="M1151.2,950.4h0l-200.5-202L836.2,863.7l200.5,202h.1a.1.1,0,0,0,.1.1,80.4,80.4,0,0,0,114.3,0A82,82,0,0,0,1151.2,950.4Z" style="fill: url(#linear-gradient-2);"></path>
                    <ellipse class="fill-white" cx="893.3" cy="805.8" rx="80.9" ry="81.5"></ellipse>
                </g>
                <g id="middle-iss-dots">
                    <circle class="fill-primary" cx="1685.5" cy="911.8" r="31.6"></circle>
                    <circle class="fill-primary" cx="1253.5" cy="1033.8" r="31.6"></circle>
                </g>
            </g>
        </g>

        
        <g id="middle-hybrid-cloud" class="hybrid-cloud" data-svg-origin="284.9000244140625 615.5999755859375" transform="matrix(1,0,0,1,0,0)" style="transform-origin: 0px 0px; opacity: 1;">
            <path id="hybrid-cloud-shadow" d="M1269.4,1399.3c0,13.3-120.2,24.2-268.4,24.2s-268.4-10.9-268.4-24.2,120.2-24.2,268.4-24.2,268.4,10.8,268.4,24.2"></path>
            <g id="middle-hybrid-cloud-cloud">
                <rect x="781.3" y="851.5" width="439.4" height="106.17" style="fill: #e6e6e6;"></rect>
                <circle cx="944" cy="786.6" r="171" style="fill: url(#radial-gradient-2);"></circle>
                <circle cx="781.3" cy="866.2" r="91.4" style="fill: url(#radial-gradient-3);"></circle>
                <circle cx="1220.7" cy="866.2" r="91.4" style="fill: url(#radial-gradient-4);"></circle>
                <circle cx="1096.8" cy="832.3" r="125.3" style="fill: url(#radial-gradient-5);"></circle>
            </g>
            <g id="middle-hybrid-cloud-computer-stack">
                <path d="M1135.6,1197.7v-55.9a22.8,22.8,0,0,0-22.8-22.8H889.2a22.8,22.8,0,0,0-22.8,22.8v55.9a22.8,22.8,0,0,0,7.4,16.8,22.6,22.6,0,0,0-7.4,16.7v56a22.7,22.7,0,0,0,7.4,16.7,22.8,22.8,0,0,0-7.4,16.8v55.9a22.8,22.8,0,0,0,22.8,22.8h223.6a22.8,22.8,0,0,0,22.8-22.8v-55.9a22.8,22.8,0,0,0-7.4-16.8,22.7,22.7,0,0,0,7.4-16.7v-56a22.6,22.6,0,0,0-7.4-16.7,22.8,22.8,0,0,0,7.4-16.8"></path>
                <path style="fill: red;" d="M1112.8,1222.8H889.2a8.5,8.5,0,0,0-8.4,8.4v56a8.3,8.3,0,0,0,8.4,8.3h223.6a8.3,8.3,0,0,0,8.4-8.3v-56a8.4,8.4,0,0,0-8.4-8.4m-209.7,42a8.5,8.5,0,0,1,8.4-8.4h33.6a8.4,8.4,0,0,1,0,16.8H911.5a8.5,8.5,0,0,1-8.4-8.4m179-11.1a7.2,7.2,0,0,1,.7-3.3,10,10,0,0,1,1.7-2.8,9,9,0,0,1,11.9,0,8.4,8.4,0,0,1,1.8,2.8,8.8,8.8,0,0,1,.7,3.3,9.3,9.3,0,0,1-2.5,5.9,8.8,8.8,0,0,1-11.9,0,10,10,0,0,1-1.7-2.8,7.1,7.1,0,0,1-.7-3.2"></path>
                <path style="fill: red;" d="M1112.8,1312.3H889.2a8.4,8.4,0,0,0-8.4,8.4v55.9a8.3,8.3,0,0,0,8.4,8.4h223.6a8.3,8.3,0,0,0,8.4-8.4v-55.9a8.4,8.4,0,0,0-8.4-8.4m-209.7,42a8.4,8.4,0,0,1,8.4-8.4h33.6a8.4,8.4,0,0,1,0,16.8H911.5a8.5,8.5,0,0,1-8.4-8.4m179-11.2a8.4,8.4,0,0,1,8.3-8.5,8.5,8.5,0,0,1,8.5,8.5,8.8,8.8,0,0,1-.7,3.2,6.8,6.8,0,0,1-1.8,2.6,8.1,8.1,0,0,1-11.5.4l-.4-.4a5.6,5.6,0,0,1-1.7-2.6,7.1,7.1,0,0,1-.7-3.2"></path>
                <path style="fill: red;" d="M1112.8,1133.4H889.2a8.3,8.3,0,0,0-8.4,8.4v55.9a8.4,8.4,0,0,0,8.4,8.4h223.6a8.4,8.4,0,0,0,8.4-8.4v-55.9a8.3,8.3,0,0,0-8.4-8.4m-209.7,41.9a8.5,8.5,0,0,1,8.4-8.4h33.6a8.4,8.4,0,0,1,0,16.8H911.5a8.5,8.5,0,0,1-8.4-8.4m179-11.1a7.8,7.8,0,0,1,.7-3.3,6.5,6.5,0,0,1,1.7-2.6,8.6,8.6,0,0,1,11.9,0,8,8,0,0,1,2.5,5.9,8.2,8.2,0,0,1-.7,3.1,7.1,7.1,0,0,1-1.8,2.7,8.2,8.2,0,0,1-11.5.4.8.8,0,0,0-.4-.4,7.7,7.7,0,0,1-1.7-2.7,6.7,6.7,0,0,1-.7-3.1"></path>
            </g>
            <g id="middle-hybrid-cloud-3-red-dots">
                <path id="left-dot" d="M348.1,909.5a31.6,31.6,0,1,1-31.6-31.6,31.6,31.6,0,0,1,31.6,31.6" style="fill: red;"></path>
                <path id="right-dot" d="M1717.1,909.5a31.6,31.6,0,1,1-31.6-31.6h0a31.7,31.7,0,0,1,31.6,31.6" style="fill: red;"></path>
                <path id="center-dot" d="M1033.1,1040.5a31.6,31.6,0,1,1-31.6-31.6,31.6,31.6,0,0,1,31.6,31.6h0" style="fill: red;"></path>
            </g>
        </g>
        <g id="middle-cloud-services" class="cloud-services" data-svg-origin="703.0999755859375 681.6000366210938" transform="matrix(1,0,0,1,0,1850)" style="transform-origin: 0px 0px; opacity: 0;">
            <g id="cloud">
                <rect x="794.5" y="1204.7" width="439.4" height="106.17" class="fill-gray-300"></rect>
                <circle cx="957.2" cy="1139.8" r="171" style="fill: url(#radial-gradient-10);"></circle>
                <circle cx="794.5" cy="1219.4" r="91.4" style="fill: url(#radial-gradient-11);"></circle>
                <circle cx="1233.9" cy="1219.4" r="91.4" style="fill: url(#radial-gradient-12);"></circle>
                <circle cx="1110" cy="1185.5" r="125.3" style="fill: url(#radial-gradient-13);"></circle>
            </g>
            <path id="shadow" d="M1269.4,1399.4c0,13.4-120.2,24.2-268.4,24.2s-268.4-10.8-268.4-24.2,120.2-24.2,268.4-24.2,268.4,10.8,268.4,24.2"></path>
            <g id="stack-icon">
                <circle cx="1009.8" cy="788.7" r="107.1" style="fill: url(#radial-gradient-14);stroke: red;stroke-width: 6;"></circle>
                <path style="fill: url(#radial-gradient-15);" d="M1067.6,798.6l-58.9,32.2-58.8-32.2a4.2,4.2,0,0,0-5.7,1.7,4.1,4.1,0,0,0,1.7,5.6l60.9,33.2a3.4,3.4,0,0,0,1.9.5,3.5,3.5,0,0,0,2-.5l60.9-33.2a4.1,4.1,0,0,0,1.7-5.6A4.2,4.2,0,0,0,1067.6,798.6Z"></path>
                <path style="fill: url(#radial-gradient-16);" d="M945.9,778.3l60.9,33.2a4.5,4.5,0,0,0,1.9.5,4.6,4.6,0,0,0,2-.5l60.9-33.2a4.5,4.5,0,0,0,2.2-3.7,4.2,4.2,0,0,0-2.2-3.6l-60.9-33.2a3.9,3.9,0,0,0-3.9,0L945.9,771a4.2,4.2,0,0,0-2.2,3.6A4.5,4.5,0,0,0,945.9,778.3Z"></path>
            </g>
        </g>
        <!-- FRONT -->
        <path id="front-ellipse" d="M1685.9,915.4c0,70.4-306.5,127.4-684.7,127.4s-684.6-57-684.6-127.4" style="fill: none;stroke: red;stroke-width: 6;"></path>
        <g id="front-hybrid-cloud" class="hybrid-cloud" data-svg-origin="140.02801513671875 575.5374755859375" transform="matrix(1,0,0,1,0,0)" style="transform-origin: 0px 0px; opacity: 1;">
            <path id="hybrid-cloud-right-small-shadow" d="M1837.6,1156.3c0,6.6-60.1,12.1-134.2,12.1s-134.2-5.5-134.2-12.1,60-12.1,134.2-12.1,134.2,5.4,134.2,12.1"></path>
            <path id="hybrid-cloud-left-small-shadow" d="M437.5,1156.3c0,6.6-60,12.1-134.2,12.1s-134.2-5.5-134.2-12.1,60.1-12.1,134.2-12.1,134.2,5.4,134.2,12.1"></path>
            <g id="hybrid-cloud-blue-lined-cloud">
                <path style="stroke: blue;stroke-width: 6;" d="M1606,788a67.4,67.4,0,0,1-49.6-113.1,68.3,68.3,0,0,1,24.9-17,105.6,105.6,0,0,1,189-36.2,84.3,84.3,0,0,1,31.3,11.7,82,82,0,0,1,22.1,20.2,67.4,67.4,0,0,1-7.1,134.4Z"></path>
                <rect x="1606" y="713.5" width="210.6" height="50.89"></rect>
                <circle cx="1816.6" cy="720.6" r="43.8" style="fill: url(#radial-gradient-17);"></circle>
                <circle cx="1684" cy="682.4" r="82" style="fill: url(#radial-gradient-18);"></circle>
                <circle cx="1757.3" cy="704.3" r="60.1" style="fill: url(#radial-gradient-19);"></circle>
                <circle cx="1606" cy="720.6" r="43.8" style="fill: url(#radial-gradient-20);"></circle>
            </g>
            <g id="hybrid-cloud-yellow-lined-cloud">
                <path style="stroke: yellow;stroke-width: 6;" d="M207.4,786.6a67.4,67.4,0,0,1-24.7-130.1,105.6,105.6,0,0,1,189-36.2,83.3,83.3,0,0,1,53.4,31.9A67.4,67.4,0,0,1,418,786.6Z"></path>
                <rect x="207.4" y="712.2" width="210.6" height="50.89"></rect>
                <circle cx="418" cy="719.2" r="43.8" style="fill: url(#radial-gradient-21);"></circle>
                <circle cx="285.4" cy="681.1" r="82" style="fill: url(#radial-gradient-22);"></circle>
                <circle cx="358.6" cy="703" r="60.1" style="fill: url(#radial-gradient-23);"></circle>
                <circle cx="207.4" cy="719.2" r="43.8" style="fill: url(#radial-gradient-24);"></circle>
            </g>
        </g>
        <g id="front-cloud-services" class="cloud-services" data-svg-origin="407.1999816894531 870.800048828125" transform="matrix(1,0,0,1,0,1850)" style="transform-origin: 0px 0px; opacity: 0;">
            <g id="window-icon">
                <circle cx="514.3" cy="977.9" r="107.1" style="fill: url(#radial-gradient-25);stroke: yellow;stroke-width: 6;"></circle>
                <path d="M561.9,926.5H466.2a3.8,3.8,0,0,0-3.8,3.8v94.6a3.8,3.8,0,0,0,3.8,3.8h95.7a3.8,3.8,0,0,0,3.8-3.8V930.3A3.8,3.8,0,0,0,561.9,926.5Zm-22.5,21.7a2.8,2.8,0,0,1-1.2.8,3.9,3.9,0,0,1-3,0,2.8,2.8,0,0,1-1.2-.8,3.6,3.6,0,0,1-.8-1.2,3.3,3.3,0,0,1-.3-1.5,3.5,3.5,0,0,1,.3-1.4,3.6,3.6,0,0,1,.8-1.2,4,4,0,0,1,5.4,0,3.6,3.6,0,0,1,1.1,2.6A3.7,3.7,0,0,1,539.4,948.2Zm10.9-1.2a3.6,3.6,0,0,1-.8,1.2,3.9,3.9,0,0,1-5.4,0,3.6,3.6,0,0,1-.8-1.2,3.3,3.3,0,0,1-.3-1.5,3.6,3.6,0,0,1,1.1-2.6,4,4,0,0,1,5.4,0,3.6,3.6,0,0,1,1.1,2.6A3.3,3.3,0,0,1,550.3,947Z" style="fill: url(#radial-gradient-26);"></path>
            </g>
            <g id="binary-icon">
                <circle cx="1511.7" cy="981.6" r="107.1" style="fill: url(#radial-gradient-27);stroke: blue;stroke-width: 6;"></circle>
                <path d="M1459.1,985.4a3.7,3.7,0,0,0-3.7,3.7v30a3.7,3.7,0,0,0,3.7,3.8,3.8,3.8,0,0,0,3.8-3.8v-30A3.8,3.8,0,0,0,1459.1,985.4Zm20,0a3.7,3.7,0,0,0-3.7,3.7v30a3.7,3.7,0,0,0,3.7,3.8,3.8,3.8,0,0,0,3.8-3.8v-30A3.8,3.8,0,0,0,1479.1,985.4Zm-20-45a3.7,3.7,0,0,0-3.7,3.8v29.9a3.7,3.7,0,0,0,3.7,3.8,3.8,3.8,0,0,0,3.8-3.8V944.2A3.8,3.8,0,0,0,1459.1,940.4Zm60,37.5a3.8,3.8,0,0,0,3.8-3.8V944.2a3.8,3.8,0,0,0-3.8-3.8,3.7,3.7,0,0,0-3.7,3.8v29.9A3.7,3.7,0,0,0,1519.1,977.9Zm20,7.5a3.7,3.7,0,0,0-3.7,3.7v30a3.7,3.7,0,1,0,7.4,0v-30A3.7,3.7,0,0,0,1539.1,985.4Zm-31.2-26.3a18.8,18.8,0,1,0-18.8,18.8A18.8,18.8,0,0,0,1507.9,959.1Zm-18.8,11.3a11.3,11.3,0,1,1,11.3-11.3A11.2,11.2,0,0,1,1489.1,970.4Zm78.7-11.3a18.7,18.7,0,1,0-18.7,18.8A18.7,18.7,0,0,0,1567.8,959.1Zm-18.7,11.3a11.3,11.3,0,1,1,11.2-11.3A11.2,11.2,0,0,1,1549.1,970.4Zm10,15a3.8,3.8,0,0,0-3.8,3.7v30a3.8,3.8,0,0,0,3.8,3.8,3.7,3.7,0,0,0,3.7-3.8v-30A3.7,3.7,0,0,0,1559.1,985.4Zm-50,0a18.8,18.8,0,1,0,18.8,18.7A18.7,18.7,0,0,0,1509.1,985.4Zm0,30a11.3,11.3,0,1,1,11.3-11.3A11.2,11.2,0,0,1,1509.1,1015.4Z" style="fill: url(#radial-gradient-28);"></path>
            </g>
        </g>
    </g>
    <rect width="2000" height="212.99" style="fill:url(#linear-gradient-7)"></rect>
    <rect y="1790" width="2000" height="212.99" style="fill:url(#linear-gradient-8)"></rect>
</svg>