<?xml version="1.0" encoding="utf-8"?>
<!-- Generator: Adobe Illustrator 24.0.0, SVG Export Plug-In . SVG Version: 6.00 Build 0)  -->
<svg version="1.1" id="aee25b5e-f5a3-4e07-91a0-6ef71fca9be5"
	 xmlns="http://www.w3.org/2000/svg" xmlns:xlink="http://www.w3.org/1999/xlink" x="0px" y="0px" width="949.8px" height="780.7px"
	 viewBox="0 0 949.8 780.7" style="enable-background:new 0 0 949.8 780.7;" xml:space="preserve">
<style type="text/css">
	.st0{fill:#ED1C24;}
	.st1{fill:#FFFFFF;}
	.st2{fill:none;}
</style>
<title>illustration_working-in-open-hybrid-cloud</title>
<g id="fafd016f-c50d-4da5-a8bf-50e22be155ea">
	<path id="b957bb0b-a6d5-4125-a578-ee728139daba" class="st0" d="M506.4,88.9h1.4c0-40.9,33.1-74,74-74s74,33.1,74,74
		c0,40.9-33.1,74-74,74c-19.6,0-38.4-7.8-52.3-21.7c-13.9-13.9-21.7-32.7-21.7-52.4H505c0,42.4,34.4,76.8,76.8,76.8
		c42.4,0,76.8-34.4,76.8-76.8c0-42.4-34.4-76.8-76.8-76.8c0,0,0,0,0,0l0,0c-42.4,0-76.8,34.4-76.8,76.8c0,0,0,0,0,0L506.4,88.9z"/>
	<path id="a315b2e0-4c1f-4333-85a5-2afc52cd855a" class="st0" d="M734.5,267.4h1.5c0-47.7,38.7-86.4,86.5-86.4s86.4,38.7,86.4,86.5
		c0,47.7-38.7,86.4-86.5,86.4c-22.9,0-44.9-9.1-61.1-25.3c-16.2-16.2-25.3-38.2-25.3-61.2h-3c0,49.4,40.1,89.5,89.5,89.5
		s89.5-40.1,89.5-89.5c0-49.4-40.1-89.5-89.5-89.5c-49.4,0-89.5,40.1-89.5,89.5l0,0H734.5L734.5,267.4z"/>
	<path id="a0e9f197-c891-479b-8e2d-6dafad297042" class="st0" d="M187.2,136.2h1.5C188.7,73,240,21.8,303.1,21.8
		S417.6,73,417.6,136.2s-51.2,114.4-114.4,114.4c-30.3,0-59.5-12.1-80.9-33.5c-21.5-21.5-33.5-50.5-33.5-80.9h-3
		c0,64.9,52.6,117.4,117.4,117.4c64.9,0,117.4-52.6,117.4-117.4S368,18.7,303.2,18.7c0,0,0,0-0.1,0l0,0
		c-64.9,0-117.4,52.6-117.4,117.4H187.2"/>
	<path id="e9d59ed5-fef8-4831-9926-76b0f2b41452" class="st0" d="M406.5,314.4h1.5c0-63.2,51.2-114.4,114.4-114.4
		c63.2,0,114.4,51.2,114.4,114.4c0,63.2-51.2,114.4-114.4,114.4c-30.3,0-59.5-12.1-80.9-33.5c-21.5-21.5-33.5-50.5-33.5-80.9h-3
		c0,64.9,52.6,117.5,117.4,117.5c64.9,0,117.5-52.6,117.5-117.4c0-64.9-52.6-117.5-117.4-117.5c0,0,0,0,0,0
		C457.6,197,405,249.5,405,314.4H406.5L406.5,314.4z"/>
	<rect id="fbf1d17b-38a3-4219-ba29-28b8c08d585e" x="497.1" y="39.6" width="163.8" height="106.3"/>
	<rect id="f51f1cad-8fe6-4e1f-a257-dd3bcc5c34b7" x="501.7" y="34.9" class="st1" width="163.8" height="106.4"/>
	<path id="af85aab1-5b54-439c-850f-29293e884ec5" d="M665.5,141.3v-1H502.7V35.9h161.7v105.4h2V33.9H500.7v108.4h165.8v-1
		L665.5,141.3z"/>
	<line id="acd9d1c0-fdc5-4dcd-8375-ef8b84b4504a" class="st2" x1="502.2" y1="92" x2="664.9" y2="92"/>
	<path id="b11133fb-3eda-4c96-86bb-5a4bf1138650" d="M502.2,93h162.7v-2H502.2"/>
	<path id="bdf5f14b-916f-4a6a-be39-5f1213f4cbc3" class="st1" d="M521,102.3h127.6c3.4,0,6.1,2.7,6.1,6.1v15.8
		c0,3.4-2.7,6.1-6.1,6.1H521c-3.4,0-6.1-2.7-6.1-6.1c0,0,0,0,0,0l0,0v-15.8C514.9,105,517.7,102.3,521,102.3
		C521,102.3,521,102.3,521,102.3z"/>
	<path id="a4d5d196-7d96-4ceb-8a0b-7c46312d0416" class="st0" d="M651.4,130.3v-1h-133c-1.3,0-2.4-1.1-2.4-2.4l0,0v-21.3
		c0-1.3,1.1-2.4,2.4-2.4l0,0h133c1.3,0,2.4,1.1,2.4,2.4V127c0,1.3-1.1,2.4-2.4,2.4v2c2.4,0,4.4-2,4.4-4.4v-21.3c0-2.4-2-4.4-4.4-4.4
		h-133c-2.4,0-4.4,2-4.4,4.4v21.3c0,2.4,2,4.4,4.4,4.4h133V130.3z"/>
	<circle id="bbd61fd1-433f-492f-99c4-cbb50633d899" class="st0" cx="633.7" cy="116.1" r="1.8"/>
	<circle id="bb036bf0-75b0-476e-a91e-3e20148e52e6" class="st0" cx="622.3" cy="116.1" r="1.8"/>
	<circle id="a42e12b1-fe0f-4e61-949e-aef7af67ecb0" class="st0" cx="645" cy="116.1" r="1.8"/>
	<line id="ab3a8208-2510-4cf8-9ca6-472f224c7830" class="st2" x1="525.4" y1="116.3" x2="611.3" y2="116.3"/>
	<path id="b93a623b-e7c6-4b4a-aa69-5b2f5054b533" d="M525.5,117.3h85.8c0.6,0,1-0.4,1-1s-0.4-1-1-1h-85.8c-0.6,0-1,0.4-1,1
		S524.9,117.3,525.5,117.3"/>
	<path id="a1e00d10-e608-473e-9f5a-618d6886eecb" class="st0" d="M645,63.8c0-1.5,1.3-2.8,2.8-2.8s2.8,1.3,2.8,2.8
		c0,1.5-1.3,2.8-2.8,2.8c0,0,0,0,0,0C646.2,66.6,645,65.3,645,63.8z"/>
	<path id="f510351c-707a-4f1a-b112-dcbc458a8855" class="st0" d="M520,63.8c0-1.5,1.3-2.8,2.8-2.8s2.8,1.3,2.8,2.8
		c0,1.5-1.3,2.8-2.8,2.8C521.3,66.6,520,65.3,520,63.8z"/>
	<line id="b4fd31d3-e478-4e6a-92b0-c9aa7dc35d23" class="st2" x1="542.4" y1="63.8" x2="628.2" y2="63.8"/>
	<path id="bb8308bb-16ed-4475-ac82-12aecff10987" d="M542.4,64.8h85.9c0.6,0,1-0.4,1-1c0-0.6-0.4-1-1-1h-85.9c-0.6,0-1,0.4-1,1
		C541.4,64.4,541.8,64.8,542.4,64.8"/>
	<rect id="b3b8b3b2-732a-4e19-8f2b-e945581c8e14" x="725.2" y="228.8" width="190.2" height="64.7"/>
	<rect id="e4112a61-2c25-46aa-9221-7110ec6fd4ba" x="729.5" y="226.6" class="st1" width="190.2" height="61.8"/>
	<path id="ea01a70a-d0b6-4fcb-8740-85315eec4d11" d="M919.7,288.4v-1H730.6v-59.8h188.2v60.8h2v-62.8H728.5v63.8h192.2v-1
		L919.7,288.4z"/>
	<path id="b3b05353-6d78-45f5-a4fa-238e93a07cd8" class="st0" d="M895.9,260.1c0-1.8,1.5-3.2,3.2-3.2s3.2,1.5,3.2,3.2
		s-1.5,3.2-3.2,3.2S895.9,261.9,895.9,260.1L895.9,260.1z"/>
	<path id="ae460ee7-c985-4d92-b902-03d309ed1149" class="st0" d="M750.7,260.1c0-1.8,1.4-3.3,3.2-3.3c1.8,0,3.3,1.4,3.3,3.2
		c0,1.8-1.4,3.3-3.2,3.3c0,0,0,0,0,0C752.2,263.3,750.7,261.9,750.7,260.1C750.7,260.1,750.7,260.1,750.7,260.1z"/>
	<line id="bffb8956-a1ef-4761-8e5c-ee2f0fa80d27" class="st2" x1="776.7" y1="260.1" x2="876.5" y2="260.1"/>
	<path id="eff41057-1e3d-4533-9822-c0a4e7bca2ca" d="M776.7,261.1h99.7v-2h-99.7"/>
	<path id="e5cc43e5-8742-4f67-9712-9c771e88bf61" class="st0" d="M933.2,310.2v3.8h-3.8c-0.6,0-1,0.4-1,1s0.4,1,1,1h5.8v-5.8
		c0-0.6-0.4-1-1-1S933.2,309.6,933.2,310.2L933.2,310.2z"/>
	<path id="e3eb95a9-f7c2-41e4-8b9e-538cdbf598c0" class="st0" d="M739.1,314H729c-0.6,0-1,0.4-1,1s0.4,1,1,1h10.2c0.6,0,1-0.4,1-1
		S739.7,314,739.1,314z M764.2,314H754c-0.6,0-1,0.4-1,1s0.4,1,1,1h10.2c0.6,0,1-0.4,1-1S764.8,314,764.2,314L764.2,314z M789.2,314
		h-10.1c-0.6,0-1,0.4-1,1s0.4,1,1,1h10.2c0.6,0,1-0.4,1-1S789.8,314,789.2,314L789.2,314z M814.2,314h-10.1c-0.6,0-1,0.4-1,1
		s0.4,1,1,1h10.2c0.6,0,1-0.4,1-1S814.9,314,814.2,314L814.2,314z M839.2,314h-10.1c-0.6,0-1,0.4-1,1s0.4,1,1,1h10.2
		c0.6,0,1-0.4,1-1S839.9,314,839.2,314L839.2,314z M864.2,314h-10c-0.6,0-1,0.4-1,1s0.4,1,1,1h10.2c0.6,0,1-0.4,1-1s-0.4-1-1-1
		H864.2z M889.3,314h-10c-0.6,0-1,0.4-1,1s0.4,1,1,1h10.2c0.6,0,1-0.4,1-1s-0.4-1-1-1H889.3z M914.3,314h-10c-0.6,0-1,0.4-1,1
		s0.4,1,1,1h10.2c0.6,0,1-0.4,1-1s-0.4-1-1-1H914.3z"/>
	<path id="ac2623b6-3675-45c1-9f9c-e8f78763e3bf" class="st0" d="M714.1,314h-3.8v-3.8c0-0.6-0.4-1-1-1s-1,0.4-1,1v5.8h5.8
		c0.6,0,1-0.4,1-1S714.7,314.1,714.1,314L714.1,314z"/>
	<path id="a853f5b2-3343-4a3c-b0ee-3ce3c7fc9345" class="st0" d="M710.3,240.6v-10.9c0-0.6-0.4-1-1-1s-1,0.4-1,1v10.9
		c0,0.6,0.4,1,1,1S710.3,241.2,710.3,240.6L710.3,240.6z M710.3,267.4v-10.9c0-0.6-0.4-1-1-1s-1,0.4-1,1v10.9c0,0.6,0.4,1,1,1
		S710.3,268,710.3,267.4z M710.3,294.3v-10.9c0-0.6-0.4-1-1-1s-1,0.4-1,1v10.9c0,0.6,0.4,1,1,1S710.3,294.8,710.3,294.3z"/>
	<path id="f8e85ec5-30e8-4a8a-904c-c0276dd2488f" class="st0" d="M710.3,213.7v-3.8h3.8c0.6,0,1-0.4,1-1s-0.4-1-1-1h-5.8v5.8
		c0,0.6,0.4,1,1,1c0,0,0,0,0.1,0C709.9,214.7,710.3,214.3,710.3,213.7L710.3,213.7z"/>
	<path id="aa6e2c76-06a5-48bb-8d0e-d8db3f32c490" class="st0" d="M904.3,210h10.2c0.6,0,1-0.4,1-1s-0.4-1-1-1h-10.2
		c-0.6,0-1,0.4-1,1S903.8,210,904.3,210z M879.3,210h10.2c0.6,0,1-0.4,1-1s-0.4-1-1-1h-10.2c-0.6,0-1,0.4-1,1S878.7,210,879.3,210z
		 M854.3,210h10.2c0.6,0,1-0.4,1-1s-0.4-1-1-1h-10.2c-0.6,0-1,0.4-1,1S853.7,210,854.3,210L854.3,210z M829.3,210h10.2
		c0.6,0,1-0.4,1-1s-0.4-1-1-1h-10.3c-0.6,0-1,0.4-1,1S828.6,210,829.3,210L829.3,210z M804.2,210h10.2c0.6,0,1-0.4,1-1s-0.4-1-1-1
		h-10.3c-0.6,0-1,0.4-1,1S803.6,210,804.2,210L804.2,210z M779.2,210h10.2c0.6,0,1-0.4,1-1s-0.4-1-1-1h-10.3c-0.6,0-1,0.4-1,1
		S778.5,210,779.2,210L779.2,210z M754.1,210h10.2c0.6,0,1-0.4,1-1s-0.4-1-1-1H754c-0.6,0-1,0.4-1,1s0.4,1,1,1H754.1z M729.1,210
		h10.2c0.6,0,1-0.4,1-1s-0.4-1-1-1H729c-0.6,0-1,0.4-1,1s0.4,1,1,1H729.1z"/>
	<path id="bbacf711-8b76-4bed-8812-b282a250a5e4" class="st0" d="M929.4,210h3.8v3.8c0,0.6,0.4,1,1,1s1-0.4,1-1v-5.8h-5.8
		c-0.6,0-1,0.4-1,1S928.8,209.9,929.4,210L929.4,210z"/>
	<path id="a50d70df-b098-418d-8bfc-45436359965a" class="st0" d="M933.2,283.4v10.9c0,0.6,0.4,1,1,1s1-0.4,1-1v-10.9
		c0-0.6-0.4-1-1-1S933.2,282.8,933.2,283.4z M933.2,256.5v10.9c0,0.6,0.4,1,1,1s1-0.4,1-1v-10.9c0-0.6-0.4-1-1-1
		S933.2,256,933.2,256.5L933.2,256.5z M933.2,229.7v10.9c0,0.6,0.4,1,1,1s1-0.4,1-1v-10.9c0-0.6-0.4-1-1-1S933.2,229.2,933.2,229.7
		L933.2,229.7z"/>
	<path id="b53a3cf2-0649-4274-ab99-170724d15666" class="st1" d="M163.2,330.4v-69.6l-60.3-34.8l-60.3,34.8v69.6l60.3,34.8
		L163.2,330.4z"/>
	<path id="acc02c37-8f75-44ea-bdfe-96b9bf3b06c7" d="M163.2,330.4h0.5v-69.9l-60.8-35.1l-60.8,35.1v70.2l60.8,35.1l60.8-35.1v-0.3
		H163.2L163,330L103,364.6l-59.8-34.6V261l59.8-34.5l59.8,34.5v69.4L163.2,330.4L163,330L163.2,330.4z"/>
	<path id="afe92764-ee8e-4609-8631-8e14ac6a3e32" d="M42.4,260.9l-0.5,0.9l60.4,34.9c0.3,0.2,0.7,0.2,1,0l60.3-34.9
		c0.5-0.3,0.7-0.9,0.4-1.4c0,0,0,0,0,0c-0.1-0.2-0.2-0.3-0.4-0.4L103.2,225c-0.3-0.2-0.7-0.2-1,0L41.9,260c-0.5,0.3-0.7,0.9-0.4,1.4
		c0,0,0,0,0,0c0.1,0.2,0.2,0.3,0.4,0.4L42.4,260.9l0.5,0.9l59.8-34.6l58.3,33.6l-58.3,33.8l-59.9-34.6L42.4,260.9l0.5,0.8
		L42.4,260.9z"/>
	<path id="fcf49b49-b677-44e3-91ca-6c2a23513af5" d="M43.5,330.5v-69.7c0-0.6-0.4-1-1-1s-1,0.4-1,1v69.7c0,0.6,0.4,1,1,1
		S43.5,331,43.5,330.5"/>
	<path id="aaaad461-1198-4300-9abe-d9e73ff80a28" d="M162,260.9v69.5c0,0.6,0.4,1,1,1s1-0.4,1-1v-69.5c0-0.6-0.4-1-1-1
		S162,260.4,162,260.9"/>
	<path id="f533fa24-63f0-44ad-9c34-eec86237ed43" d="M101.8,295.6l0.1,69.6c0,0.6,0.4,1,1,1s1-0.4,1-1l-0.1-69.6c0-0.6-0.4-1-1-1
		S101.8,295.1,101.8,295.6L101.8,295.6"/>
	<path id="fd4b76e8-5717-469b-9296-1233c8863d22" d="M42,331.3l60.3,34.8c0.3,0.2,0.7,0.2,1,0l60.4-34.7c0.5-0.3,0.7-0.9,0.4-1.4
		c-0.3-0.5-0.9-0.7-1.4-0.4l0,0L102.7,364L43,329.6c-0.5-0.3-1.1-0.1-1.4,0.4C41.3,330.4,41.5,331,42,331.3L42,331.3L42,331.3z"/>
	<path id="ea0e32d7-4e5a-4bdb-88d2-0fa468f1fb1e" class="st0" d="M152.8,276.1v39.3c-0.2,0.5,0.1,1.1,0.6,1.3s1.1-0.1,1.3-0.6
		c0.1-0.2,0.1-0.4,0-0.6c0,0,0-0.1,0-0.1v-39.3c-0.2-0.5-0.7-0.8-1.3-0.7C153.2,275.5,152.9,275.7,152.8,276.1"/>
	<path id="f1a00aea-8b5f-4459-86d4-1937fdbbf2aa" class="st0" d="M146.7,260.7l-31.1-18.1c-0.5-0.3-1-0.1-1.3,0.3
		c-0.3,0.5-0.1,1,0.3,1.3h0.1l31.1,18.2c0.5,0.2,1.1-0.1,1.2-0.7C147.1,261.3,147,261,146.7,260.7L146.7,260.7"/>
	<path id="ab884eb4-9f61-46b5-8818-bd6509f8c47b" class="st0" d="M14.3,295.7h1.5c0-48.1,39-87.1,87.1-87.1s87.1,39,87.1,87.1
		c0,48.1-39,87.1-87.1,87.1c-23.1,0-45.3-9.2-61.6-25.5C25,341,15.8,318.8,15.8,295.7h-3.1c0,49.8,40.3,90.1,90.1,90.1
		c49.8,0,90.1-40.3,90.2-90.1s-40.3-90.1-90.1-90.2c0,0,0,0,0,0c-49.8,0-90.1,40.4-90.1,90.1H14.3L14.3,295.7z"/>
	<path id="b98799f2-5e56-4c6a-abea-3623582c5a4e" class="st0" d="M90.7,195.6c1.1,0,2-0.9,2-2c0-1.1-0.9-2-2-2s-2,0.9-2,2
		c0,0.5,0.2,1,0.6,1.4C89.7,195.4,90.2,195.6,90.7,195.6"/>
	<path id="efcddc53-fcb2-4cd6-8424-00cd59614d05" class="st0" d="M172.5,84.5L172.5,84.5c1.1-0.2,1.8-1.3,1.6-2.4s-1.3-1.8-2.4-1.6
		h-0.1l0,0c-1.1,0.2-1.8,1.3-1.6,2.4c0.2,1.1,1.3,1.8,2.4,1.6l0,0H172.5z M158,88.4L158,88.4c1.1-0.4,1.6-1.5,1.3-2.6
		c-0.4-1.1-1.5-1.6-2.6-1.3l0,0c-1.1,0.3-1.7,1.5-1.4,2.5c0.3,1.1,1.5,1.7,2.5,1.4L158,88.4L158,88.4z M144.1,94L144.1,94
		c1-0.4,1.5-1.6,1.1-2.7c-0.4-1-1.6-1.5-2.7-1.1l-0.2,0.1l0,0c-1,0.4-1.5,1.6-1.1,2.7s1.6,1.5,2.7,1.1L144.1,94z M131.2,101.5
		L131.2,101.5c0.9-0.6,1.2-1.9,0.6-2.8c-0.6-0.9-1.9-1.2-2.8-0.6h-0.1l0,0c-0.9,0.6-1.1,1.9-0.5,2.8c0,0,0,0,0,0.1
		C129,101.9,130.3,102.1,131.2,101.5L131.2,101.5z M119.7,110.9L119.7,110.9c0.8-0.8,0.8-2.1,0.1-2.9s-2.1-0.8-2.9-0.1l0,0l0,0
		c-0.8,0.8-0.8,2.1-0.1,2.9S118.9,111.7,119.7,110.9z M110,122.2L110,122.2c0.7-0.9,0.4-2.2-0.5-2.8c-0.9-0.7-2.2-0.4-2.8,0.5l0,0
		c-0.7,0.9-0.4,2.2,0.5,2.8C108,123.3,109.3,123.1,110,122.2L110,122.2z M102.3,135L102.3,135c0.5-1,0.1-2.2-0.9-2.7
		c-1-0.5-2.2-0.1-2.7,0.9l0,0c-0.5,1-0.1,2.2,0.9,2.7C100.6,136.4,101.8,136,102.3,135z M96.9,148.9L96.9,148.9
		c0.3-1.1-0.3-2.2-1.4-2.5s-2.2,0.3-2.5,1.4c-0.3,1,0.3,2.1,1.3,2.5l0,0C95.4,150.6,96.5,150,96.9,148.9
		C96.9,148.9,96.9,148.9,96.9,148.9z M93.5,163.5L93.5,163.5c0.2-1.1-0.6-2.1-1.7-2.3c-1.1-0.2-2.1,0.6-2.3,1.7l0,0
		c-0.2,1.1,0.6,2.1,1.7,2.3C92.3,165.3,93.3,164.6,93.5,163.5z M92.1,178.4L92.1,178.4c0.1-1.1-0.8-2.1-1.9-2.1
		c-1.1-0.1-2.1,0.8-2.1,1.9l0,0v0.1l0,0c-0.1,1.1,0.8,2.1,1.9,2.2s2.1-0.8,2.1-1.9l0,0V178.4z"/>
	<path id="a2f91d29-ba65-40ca-adb6-b73480d4c57d" class="st0" d="M187.2,82c1.1,0,2-0.9,2-2s-0.9-2-2-2s-2,0.9-2,2
		c0,0.5,0.2,1,0.6,1.4C186.1,81.8,186.7,82,187.2,82"/>
	<path id="fdcac7e4-51bf-49e3-9363-c3a026116613" class="st0" d="M520.1,16.3L520.1,16.3c1.1,0.3,2.2-0.3,2.5-1.3s-0.3-2.2-1.3-2.5
		c-1-0.3-2.1,0.2-2.5,1.3l0,0C518.5,14.8,519,16,520.1,16.3C520.1,16.3,520.1,16.3,520.1,16.3z M505.7,12.2L505.7,12.2
		c1.1,0.2,2.1-0.4,2.4-1.5c0.2-1.1-0.4-2.1-1.5-2.4c-1.1-0.2-2.1,0.4-2.4,1.5C503.9,10.9,504.5,12,505.7,12.2
		C505.6,12.2,505.6,12.2,505.7,12.2z M490.9,9.5L490.9,9.5c1.1,0.2,2.1-0.5,2.3-1.6c0,0,0,0,0-0.1c0.2-1.1-0.5-2.1-1.6-2.3
		c0,0,0,0-0.1,0h-0.1l0,0c-1.1-0.2-2.1,0.6-2.3,1.7c-0.2,1.1,0.6,2.1,1.7,2.3L490.9,9.5z M475.9,8.4L475.9,8.4c1.1,0,2.1-0.8,2.1-2
		c0-1.1-0.8-2.1-2-2.1l0,0H476c-1.1,0-2.1,0.8-2.1,2c0,1.1,0.8,2.1,2,2.1H475.9z M461,9.3L461,9.3c1.1-0.1,1.9-1.2,1.7-2.3
		c-0.1-1.1-1.2-1.9-2.3-1.7l0,0c-1.1,0.1-1.9,1.1-1.8,2.2C458.9,8.6,459.9,9.4,461,9.3L461,9.3z M446.5,12.4L446.5,12.4
		c1.1-0.3,1.7-1.4,1.4-2.5c-0.3-1.1-1.4-1.7-2.5-1.4h-0.1l0,0c-1.1,0.3-1.7,1.5-1.4,2.5C444.3,12,445.4,12.7,446.5,12.4L446.5,12.4z
		 M432.7,17.8L432.7,17.8c1-0.5,1.4-1.7,0.9-2.7c-0.5-1-1.7-1.4-2.7-0.9c-1,0.5-1.4,1.7-0.9,2.7l0,0
		C430.4,17.9,431.6,18.3,432.7,17.8C432.6,17.8,432.7,17.8,432.7,17.8L432.7,17.8z M420.1,25.7L420.1,25.7c0.9-0.7,1-1.9,0.3-2.8
		c-0.7-0.9-1.9-1-2.8-0.3c-0.8,0.7-1,1.9-0.4,2.8C417.9,26.2,419.1,26.4,420.1,25.7C420,25.7,420,25.7,420.1,25.7L420.1,25.7z
		 M409.1,35.7L409.1,35.7c0.8-0.8,0.8-2.1,0-2.9c-0.8-0.8-2.1-0.8-2.9,0l0,0c-0.1,0.1-0.1,0.1-0.2,0.2l0,0c-0.8,0.8-0.8,2.1,0,2.9
		c0.8,0.8,2.1,0.8,2.9,0l0,0C408.9,35.7,409,35.7,409.1,35.7L409.1,35.7z M400.3,47.5L400.3,47.5c0.6-1,0.2-2.2-0.8-2.8
		c-1-0.6-2.2-0.2-2.8,0.8l0,0l-0.1,0.1l0,0c-0.6,1-0.2,2.2,0.8,2.8C398.5,48.9,399.7,48.5,400.3,47.5
		C400.3,47.5,400.3,47.5,400.3,47.5L400.3,47.5z"/>
	<path id="b2ee9783-beff-4922-8d50-76cc637f2982" class="st0" d="M793.2,170.8L793.2,170.8c0.2,1.1,1.2,1.8,2.3,1.6
		c1.1-0.2,1.8-1.2,1.6-2.3c-0.2-1.1-1.2-1.8-2.3-1.6l0,0C793.8,168.6,793.1,169.6,793.2,170.8C793.2,170.8,793.2,170.8,793.2,170.8z
		 M789.8,156.3L789.8,156.3c0.3,1.1,1.5,1.7,2.5,1.3c1.1-0.3,1.7-1.5,1.3-2.5l0,0c-0.3-1.1-1.5-1.7-2.5-1.3
		C790.1,154.1,789.5,155.2,789.8,156.3L789.8,156.3z M784.3,142.5L784.3,142.5c0.5,1,1.7,1.4,2.7,0.9c1-0.5,1.4-1.7,0.9-2.7l0,0
		c-0.5-1-1.7-1.4-2.7-0.9C784.2,140.2,783.8,141.4,784.3,142.5z M776.5,129.9L776.5,129.9c0.7,0.9,1.9,1,2.8,0.3
		c0.9-0.7,1-1.9,0.3-2.8c-0.7-0.9-1.9-1-2.8-0.4l0,0C776,127.7,775.9,128.9,776.5,129.9C776.5,129.8,776.5,129.8,776.5,129.9z
		 M766.5,119L766.5,119c0.8,0.8,2.1,0.7,2.9-0.1s0.7-2.1-0.1-2.9l0,0c-0.8-0.8-2.1-0.7-2.9,0.1S765.7,118.2,766.5,119L766.5,119
		L766.5,119L766.5,119z M754.6,110.1L754.6,110.1c1,0.6,2.2,0.3,2.8-0.7c0.6-1,0.3-2.2-0.7-2.8l0,0l0,0c-1-0.6-2.2-0.3-2.8,0.7
		C753.4,108.3,753.7,109.5,754.6,110.1z M741.3,103.4L741.3,103.4c1,0.4,2.2-0.1,2.7-1.1c0.4-1-0.1-2.2-1.1-2.7l0,0
		c-1-0.5-2.2,0-2.7,1c-0.5,1,0,2.2,1,2.7l0,0L741.3,103.4z M727.1,98.7L727.1,98.7c1.1,0.3,2.2-0.3,2.5-1.4s-0.3-2.2-1.4-2.5l0,0
		h-0.1l0,0c-1.1-0.3-2.2,0.3-2.5,1.4c-0.3,1.1,0.3,2.2,1.4,2.5H727.1z M712.4,95.9L712.4,95.9c1.1,0.1,2.1-0.6,2.3-1.7
		s-0.6-2.1-1.7-2.3l0,0c-1.1-0.2-2.1,0.6-2.3,1.7C710.5,94.7,711.2,95.7,712.4,95.9L712.4,95.9z M697.4,94.7L697.4,94.7
		c1.1,0,2.1-0.8,2.1-1.9c0-1.1-0.8-2.1-1.9-2.1h-0.1c-1.1,0-2.1,0.8-2.1,1.9C695.3,93.7,696.2,94.7,697.4,94.7L697.4,94.7z
		 M684,94.7L684,94.7c0.6-0.9,0.4-2.2-0.5-2.8c-0.9-0.6-2.2-0.4-2.8,0.5l0,0l-0.1,0.1l0,0c-0.6,0.9-0.3,2.2,0.6,2.8
		C682.1,96,683.4,95.7,684,94.7L684,94.7z"/>
	<path id="b94792f6-37e5-4894-911a-370f3552f220" class="st0" d="M755,194.3L755,194.3c1,0.4,2.2-0.1,2.7-1.1c0.4-1-0.1-2.2-1.1-2.7
		l0,0c-1-0.4-2.2,0.1-2.7,1.1C753.5,192.7,754,193.9,755,194.3z M740.9,189.2L740.9,189.2c1.1,0.3,2.2-0.2,2.6-1.3
		c0.3-1.1-0.2-2.2-1.3-2.6h-0.1c-1.1-0.3-2.2,0.3-2.5,1.3C739.2,187.7,739.8,188.9,740.9,189.2L740.9,189.2L740.9,189.2z
		 M726.3,185.5L726.3,185.5c1.1,0.2,2.1-0.5,2.3-1.6c0.2-1.1-0.5-2.1-1.6-2.3c-1.1-0.2-2.1,0.5-2.3,1.5
		C724.5,184.2,725.2,185.2,726.3,185.5C726.3,185.5,726.3,185.5,726.3,185.5L726.3,185.5z M711.5,183.4L711.5,183.4
		c1.1,0.1,2.1-0.7,2.2-1.9c0.1-1.1-0.7-2.1-1.9-2.2l0,0l0,0c-1.1-0.1-2.1,0.7-2.2,1.8C709.5,182.3,710.3,183.2,711.5,183.4
		L711.5,183.4z M696.5,183.2L696.5,183.2c1.1,0,2-1,1.9-2.1c0,0,0,0,0-0.1c-0.1-1.1-1-2-2.1-1.9c-1.1,0.1-2,1-1.9,2.1l0,0
		C694.4,182.4,695.3,183.3,696.5,183.2C696.5,183.2,696.5,183.2,696.5,183.2L696.5,183.2L696.5,183.2z M681.7,185.1L681.7,185.1
		c1.1-0.2,1.8-1.3,1.6-2.4c-0.2-1.1-1.3-1.8-2.4-1.6l0,0l0,0c-1.1,0.2-1.8,1.3-1.6,2.4C679.6,184.7,680.6,185.4,681.7,185.1z
		 M667.4,189.2L667.4,189.2c1.1-0.4,1.6-1.6,1.2-2.6c-0.4-1.1-1.6-1.6-2.6-1.2l0,0c-1.1,0.4-1.6,1.5-1.2,2.6
		C665.1,189.1,666.3,189.6,667.4,189.2L667.4,189.2L667.4,189.2z M653.9,195.5L653.9,195.5c1-0.6,1.3-1.8,0.8-2.8s-1.8-1.3-2.8-0.8
		l0,0c-1,0.6-1.3,1.8-0.8,2.8S652.9,196,653.9,195.5z M641.4,203.6L641.4,203.6c0.9-0.7,1.1-2,0.4-2.8s-2-1.1-2.8-0.4l0,0l0,0
		c-0.9,0.7-1.1,1.9-0.4,2.8C639.2,204.2,640.4,204.3,641.4,203.6L641.4,203.6z M630.2,213.5L630.2,213.5c0.8-0.8,0.8-2,0.1-2.8
		c0,0,0,0-0.1-0.1c-0.8-0.8-2-0.8-2.8,0c0,0,0,0,0,0l0,0c-0.8,0.8-0.8,2.1,0,2.9S629.4,214.3,630.2,213.5L630.2,213.5z M620.7,225
		L620.7,225c0.6-0.9,0.3-2.2-0.6-2.8c-0.9-0.6-2.2-0.3-2.8,0.6l0,0c-0.6,0.9-0.3,2.2,0.6,2.8C618.9,226.2,620.1,225.9,620.7,225
		L620.7,225z"/>
	<path id="a749e958-fcba-4437-a846-5dd0ccf25799" class="st0" d="M800.3,374.3L800.3,374.3c0.4-1,0-2.2-1-2.6c-1-0.4-2.2,0-2.6,1
		c-0.4,1,0,2.1,1,2.6l0,0C798.6,375.8,799.8,375.4,800.3,374.3C800.3,374.4,800.3,374.3,800.3,374.3z M792.7,387.8L792.7,387.8
		c0.6-0.9,0.4-2.2-0.6-2.8c-0.9-0.6-2.2-0.4-2.8,0.6l0,0c-0.6,0.9-0.4,2.2,0.5,2.8C790.8,389,792.1,388.8,792.7,387.8L792.7,387.8z
		 M783.4,400.1L783.4,400.1c0.7-0.8,0.6-2.1-0.2-2.8c-0.8-0.7-2.1-0.6-2.8,0.2c-0.7,0.8-0.6,2,0.2,2.8
		C781.3,401,782.6,401,783.4,400.1C783.3,400.2,783.3,400.1,783.4,400.1L783.4,400.1z M772.4,411L772.4,411c0.9-0.7,1-2,0.2-2.9
		s-2-1-2.9-0.2l0,0l0,0c-0.9,0.7-0.9,2-0.2,2.9S771.5,411.7,772.4,411L772.4,411z M760,420.3L760,420.3c0.9-0.6,1.2-1.9,0.6-2.8
		c-0.6-0.9-1.9-1.2-2.8-0.6l0,0c-0.9,0.6-1.2,1.9-0.6,2.8C757.8,420.6,759,420.9,760,420.3L760,420.3z M746.5,427.9L746.5,427.9
		c1-0.5,1.4-1.7,0.9-2.7s-1.7-1.4-2.7-0.9c-1,0.5-1.4,1.6-1,2.6l0,0C744.2,427.9,745.4,428.3,746.5,427.9
		C746.4,427.8,746.4,427.8,746.5,427.9L746.5,427.9L746.5,427.9z M732.2,433.8L732.2,433.8c1.1-0.4,1.6-1.5,1.3-2.6
		s-1.5-1.6-2.6-1.3l0,0h-0.1l0,0c-1.1,0.4-1.6,1.5-1.3,2.6C729.9,433.6,731,434.1,732.2,433.8L732.2,433.8z M717.3,438.2
		L717.3,438.2c1.1-0.3,1.8-1.4,1.5-2.4c-0.3-1.1-1.4-1.8-2.5-1.5l0,0c-1.1,0.2-1.8,1.3-1.5,2.4C715.1,437.8,716.2,438.5,717.3,438.2
		L717.3,438.2z M702.2,441.1L702.2,441.1c1.1-0.1,1.9-1.1,1.8-2.2c-0.1-1.1-1.1-1.9-2.2-1.8h-0.2l0,0c-1.1,0.1-1.9,1.1-1.8,2.2
		s1.1,1.9,2.2,1.8l0,0L702.2,441.1L702.2,441.1z M686.8,442.6L686.8,442.6c1.1-0.1,2-1,1.9-2.1s-1-2-2.1-1.9l0,0
		c-1.1,0.1-2,1-1.9,2.1C684.7,441.8,685.7,442.7,686.8,442.6L686.8,442.6z M671.8,442.9L671.8,442.9c1.1-0.2,1.8-1.3,1.6-2.4
		c-0.2-1.1-1.3-1.8-2.4-1.6l0,0c-1.1,0.2-1.8,1.3-1.6,2.4C669.7,442.4,670.7,443.1,671.8,442.9z"/>
	<path id="f0b995e9-e2e5-47b7-ad32-a243e855ca35" class="st0" d="M384.1,303.2L384.1,303.2c1,0.4,2.2,0,2.7-1.1s0-2.2-1.1-2.7h-0.1
		l0,0c-1-0.4-2.2,0-2.7,1.1S382.9,302.7,384.1,303.2L384.1,303.2z M369.9,298L369.9,298c1,0.4,2.2-0.1,2.6-1.2
		c0.4-1-0.1-2.2-1.2-2.6l-0.2-0.1l0,0c-1.1-0.4-2.2,0.2-2.6,1.3C368.3,296.5,368.8,297.6,369.9,298z M355.4,293.6L355.4,293.6
		c1.1,0.3,2.2-0.3,2.5-1.4c0.3-1.1-0.3-2.2-1.4-2.5h-0.1c-1.1-0.3-2.2,0.3-2.5,1.4C353.7,292.2,354.3,293.3,355.4,293.6L355.4,293.6
		z M340.7,290.3L340.7,290.3c1.1,0.2,2.2-0.5,2.4-1.6c0.2-1.1-0.5-2.2-1.6-2.4l0,0c-1.1-0.2-2.2,0.5-2.4,1.6
		c-0.2,1.1,0.5,2.2,1.6,2.4H340.7z M325.8,287.8L325.8,287.8c1.1,0.1,2.1-0.7,2.2-1.7c0,0,0,0,0-0.1c0.1-1.1-0.6-2.1-1.7-2.2l0,0
		c-1.1-0.1-2.1,0.6-2.3,1.7C324,286.6,324.7,287.6,325.8,287.8L325.8,287.8z M310.8,286.3L310.8,286.3c1.1,0.1,2.1-0.8,2.2-1.9
		c0.1-1.1-0.8-2.1-1.9-2.2l0,0l0,0c-1.1-0.1-2.1,0.8-2.2,1.9C308.9,285.2,309.7,286.2,310.8,286.3z M295.7,285.7L295.7,285.7
		c1.1,0,2-0.9,2-2s-0.9-2-2-2l0,0c-1.1,0-2,0.9-2,2S294.6,285.7,295.7,285.7z M280.6,286.1L280.6,286.1c1.1,0,2-1,2-2.1s-1-2-2.1-2
		l0,0h-0.1c-1.1,0-2,1-2,2.1s1,2,2.1,2H280.6z M265.6,287.4L265.6,287.4c1.1-0.1,1.9-1.1,1.7-2.2c-0.1-1.1-1.1-1.9-2.2-1.7
		c-1.1,0.1-1.8,1.1-1.7,2.2C263.4,286.7,264.4,287.5,265.6,287.4C265.5,287.4,265.6,287.4,265.6,287.4z M250.6,289.6L250.6,289.6
		c1.1-0.2,1.8-1.3,1.6-2.4c-0.2-1.1-1.3-1.8-2.4-1.6l0,0c-1.1,0.2-1.8,1.3-1.6,2.4C248.5,289.1,249.5,289.8,250.6,289.6z
		 M235.7,292.7L235.7,292.7c1.1-0.3,1.8-1.4,1.5-2.5c-0.3-1.1-1.4-1.8-2.5-1.5l0,0c-1.1,0.3-1.8,1.4-1.5,2.5
		C233.5,292.4,234.6,293,235.7,292.7z M221.2,296.8L221.2,296.8c1.1-0.3,1.7-1.5,1.3-2.6c-0.3-1.1-1.5-1.7-2.6-1.3l0,0
		c-1.1,0.3-1.7,1.4-1.4,2.5c0.3,1.1,1.4,1.7,2.5,1.4L221.2,296.8z M207.2,302.1L207.2,302.1c1-0.5,1.5-1.7,1-2.7
		c-0.5-1-1.7-1.5-2.7-1l0,0l0,0c-1,0.5-1.5,1.7-1,2.7C204.9,302.1,206.1,302.5,207.2,302.1z"/>
	<path id="bb25d5ac-4325-4bea-a411-4d2ddab4e7a4" class="st0" d="M232.9,462.4L232.9,462.4c1.1,0.1,2.1-0.8,2.2-1.9
		c0.1-1.1-0.8-2.1-1.9-2.2h-0.1c-1.1-0.1-2.1,0.8-2.2,1.9C230.9,461.3,231.7,462.3,232.9,462.4L232.9,462.4L232.9,462.4z
		 M217.6,460.9L217.6,460.9c1.1,0.2,2.1-0.6,2.3-1.7c0.2-1.1-0.6-2.1-1.7-2.3h-0.1c-1.1-0.2-2.1,0.6-2.3,1.7
		c-0.2,1.1,0.6,2.1,1.7,2.3H217.6z M202.5,458.1L202.5,458.1c1.1,0.3,2.2-0.4,2.5-1.5c0.3-1.1-0.4-2.2-1.5-2.5h-0.1l0,0
		c-1.1-0.3-2.2,0.4-2.5,1.5C200.6,456.9,201.3,458,202.5,458.1L202.5,458.1z M187.7,453.8L187.7,453.8c1.1,0.4,2.2-0.2,2.6-1.2
		c0.4-1.1-0.2-2.2-1.2-2.6l0,0c-1.1-0.4-2.2,0.2-2.6,1.2C186,452.3,186.6,453.5,187.7,453.8z M173.4,447.7L173.4,447.7
		c1,0.5,2.2,0.1,2.7-0.9c0.5-1,0.1-2.2-0.9-2.7c-1-0.5-2.1-0.1-2.6,0.8C172,446,172.4,447.2,173.4,447.7
		C173.4,447.7,173.4,447.7,173.4,447.7z M160.2,439.7L160.2,439.7c0.9,0.7,2.1,0.6,2.9-0.3s0.6-2.1-0.3-2.9l-0.2-0.2l0,0
		c-0.9-0.7-2.2-0.4-2.8,0.5C159.1,437.7,159.3,439,160.2,439.7L160.2,439.7z M148.4,429.5L148.4,429.5c0.8,0.8,2.1,0.8,2.8,0
		s0.8-2.1,0-2.8c-0.8-0.8-2-0.8-2.8,0C147.6,427.4,147.6,428.7,148.4,429.5C148.4,429.5,148.4,429.5,148.4,429.5z M138.5,417.4
		L138.5,417.4c0.6,0.9,1.9,1.1,2.8,0.5s1.1-1.9,0.5-2.8c-0.6-0.9-1.8-1.1-2.7-0.5l0,0C138.2,415.2,137.9,416.5,138.5,417.4
		C138.5,417.4,138.5,417.4,138.5,417.4L138.5,417.4z M131.1,403.7L131.1,403.7c0.4,1,1.6,1.5,2.6,1.1c1-0.4,1.5-1.6,1.1-2.6
		c0,0,0,0,0-0.1l0,0c-0.4-1-1.6-1.5-2.7-1.1C131.2,401.5,130.7,402.7,131.1,403.7L131.1,403.7z M126.6,388.6L126.6,388.6
		c0.1,1.1,1.1,1.9,2.2,1.8c1.1-0.1,1.9-1.1,1.8-2.2l0,0l0,0c-0.1-1.1-1.1-1.9-2.2-1.8C127.3,386.4,126.5,387.4,126.6,388.6
		C126.6,388.5,126.6,388.5,126.6,388.6z"/>
	<path id="af00fd46-840a-4760-9151-1256def97408" class="st1" d="M390.6,88.9c-5.9,0-11.8,0.9-17.4,2.6
		c-20.4-38.4-68.1-53-106.5-32.7c-16.8,8.9-29.8,23.6-36.6,41.3c-20.9,0.7-39.5,13.5-47.6,32.8c-20.2-5.2-40.7,7-45.9,27.2
		c-5.2,20.2,7,40.7,27.2,45.9c3.1,0.8,6.2,1.2,9.3,1.2h217.5c32.7-0.4,58.8-27.2,58.4-59.9C448.6,115.3,422.7,89.4,390.6,88.9"/>
	<path id="a424c2b5-615c-4c0a-96e2-02cfe96dc553" d="M390.6,88.9v-1c-6,0-12,0.9-17.7,2.7l0.3,1l0.9-0.5
		C353.4,52.2,305.2,37.4,266.2,58c-17,9-30.2,23.9-37.1,41.9l1,0.4v-1c-21.3,0.7-40.2,13.8-48.5,33.4l0.9,0.4l0.2-1
		c-20.7-5.3-41.8,7.1-47.2,27.9c-5.3,20.7,7.1,41.8,27.9,47.2c3.2,0.8,6.4,1.2,9.7,1.2h217.4c33.2,0.4,60.5-26.2,60.9-59.4
		c0.4-33.2-26.2-60.5-59.4-60.9c-0.5,0-1,0-1.6,0v2c32.1-0.4,58.5,25.3,58.9,57.4c0.4,32.1-25.3,58.5-57.4,58.9c-0.5,0-1,0-1.5,0
		H173.1c-20.3-0.3-36.4-17-36.1-37.3c0.3-19.8,16.3-35.8,36.1-36.1c3.1,0,6.1,0.4,9.1,1.2l0.9,0.2l0.3-0.8
		c7.9-18.9,26.2-31.5,46.7-32.2h0.7l0.2-0.6c15.4-40.1,60.4-60.1,100.4-44.7c17.5,6.7,32,19.6,40.8,36.2l0.4,0.7l0.8-0.2
		c5.5-1.7,11.3-2.6,17.1-2.6L390.6,88.9"/>
	<path id="a0b42d6e-556f-4c23-87e8-6b219edbc05d" class="st1" d="M303.6,50.7c-32.2,0-61,19.8-72.6,49.9l-0.2,0.6h-0.7
		c-20.5,0.7-38.7,13.2-46.7,32.2l-0.3,0.8l-0.9-0.2c-19.6-5-39.6,6.8-44.7,26.4c-5,19.6,6.8,39.6,26.4,44.7c3,0.8,6,1.1,9.1,1.2
		h217.5c32.1,0,58.1-26,58.1-58.1S422.7,90,390.6,90l0,0c-5.8,0-11.6,0.9-17.1,2.6l-0.8,0.2l-0.4-0.7
		C358.8,66.6,332.4,50.7,303.6,50.7"/>
	<path id="fa696afd-7460-467d-99ac-d36a4e7e9cc4" d="M183.1,134.2l0.3-0.8c7.9-18.9,26.2-31.5,46.7-32.2h0.7l0.2-0.6
		c15.4-40.1,60.4-60.1,100.4-44.7c17.5,6.7,32,19.6,40.8,36.2l0.4,0.7l0.8-0.2c5.5-1.7,11.3-2.6,17.1-2.6l0,0
		c32.1,0,58.1,26,58.1,58.1l0,0c0,32.1-26,58.1-58.1,58.1c0,0,0,0,0,0H173.1c-20.3,0-36.7-16.4-36.7-36.7l0,0
		c0-20.3,16.4-36.7,36.7-36.7c3.1,0,6.1,0.4,9.1,1.2L183.1,134.2 M303.6,48.7c-32.8,0-62.2,20-74.2,50.6
		c-20.7,1-39.1,13.6-47.4,32.6c-20.8-4.9-41.6,8.1-46.5,28.9c-4.9,20.8,8.1,41.6,28.9,46.5c2.9,0.7,5.8,1,8.8,1h217.4
		c33.2,0,60.2-26.9,60.2-60.2c0-25-15.5-47.4-38.9-56.3c-1.3-0.5-2.5-0.9-3.9-1.3c-5.6-1.7-11.5-2.6-17.4-2.6l0,0
		c-5.7,0-11.4,0.8-16.9,2.4C359.7,64.7,332.8,48.7,303.6,48.7"/>
	<path id="b61427c7-1180-48ae-9d53-e1fc7bfbcd72" d="M422.9,193.4c-6,2.2-12.3,3.3-18.6,3.3H184.6c-6.4,0-18.8,2.3-30.9-8.3
		c-22.7-20-7.2-45-7.2-45c-27,31.2,1.8,65.3,26.7,64c5.2-0.3,14.5-0.4,23.9-0.6l1.4,0.6h188.3c9.1,0.2,18.1-1.3,26.5-4.6l0,0
		l0.4-0.2c3-1.2,5.9-2.9,8.5-4.9c12.6-8.2,17-15.9,17-15.9C435,187.2,429.3,191.2,422.9,193.4z"/>
	<path id="b6ea202c-328f-491b-81c6-137a65de584f" class="st0" d="M313.4,62.4c0,0-1.7-0.2-4.4-0.2c-10.7,0-21.4,2.2-31.2,6.4
		c-15.1,6.6-26.8,19.2-32.2,34.8c-0.2,0.5,0.1,1.1,0.6,1.3c0.5,0.2,1.1-0.1,1.3-0.6l0,0l0,0c5.2-15.1,16.5-27.3,31.1-33.6
		c9.6-4.1,20-6.2,30.4-6.2c1.4,0,2.4,0,3.1,0.1h0.8h0.2h0.1c0.6,0.1,1-0.3,1.1-0.9C314.4,62.8,314,62.4,313.4,62.4L313.4,62.4
		L313.4,62.4z"/>
	<path id="fe8bab73-27f5-4198-921f-78bf67e5d7df" class="st0" d="M417.7,106.7c-8.5-4.3-17.9-6.6-27.4-6.9
		c-5.7-0.1-11.4,1.1-16.5,3.6c-6,3.1-11.1,7.8-14.5,13.7c-0.3,0.5-0.1,1.1,0.4,1.4c0,0,0,0,0,0c0.5,0.3,1,0.1,1.3-0.3
		c3.2-5.6,7.9-10.1,13.6-13c4.9-2.3,10.2-3.5,15.6-3.4c6.3,0.1,12.5,1.2,18.5,3.3c2.4,0.8,4.4,1.7,5.8,2.3c0.7,0.3,1.2,0.6,1.6,0.8
		l0.4,0.2h0.1l0,0c0.5,0.3,1.1,0.1,1.4-0.4s0.1-1.1-0.4-1.4L417.7,106.7z"/>
	<circle id="ba2cdf57-ae32-45b7-9f5a-a1263b0d4935" class="st0" cx="302.3" cy="124.9" r="8.4"/>
	<line id="b66f2c2e-122d-4694-8398-b464fde162f4" class="st2" x1="302.3" y1="127.7" x2="302.3" y2="147.3"/>
	<path id="b77e4f70-1d60-474e-83b6-c2c7d92c41ea" class="st0" d="M299.5,127.7v19.7c0,1.6,1.3,2.8,2.8,2.8c1.6,0,2.8-1.3,2.8-2.8
		v-19.7c0-1.6-1.3-2.8-2.8-2.8C300.7,124.8,299.5,126.1,299.5,127.7"/>
	<path id="bb6ab868-2930-48ca-b6cc-fff2f417b747" d="M42.6,261.5c0,0,1.8,35.7,30,59c21.9,18.1,30.3,27.3,30.1,44.7l-60.3-34.8
		L42.6,261.5z"/>
	<path id="f2a6387e-674e-46f0-989a-43d1ae3a4611" class="st1" d="M677,344.1c0-31.3-25.4-56.8-56.7-56.8c-5.1,0-10.2,0.7-15.1,2
		c-12.9-47-61.4-74.6-108.4-61.7c-26.9,7.4-48.7,27.1-58.8,53.1c-33.1,2.8-57.7,32-54.9,65.2c2.7,31.1,28.7,55.1,60,55.1l77.1-0.1
		h103.9v-0.1C653.9,398.7,677,374,677,344.1z"/>
	<path id="f82dc003-34a3-4615-bb51-4f82932940e5" d="M677,344.1h1c0-31.9-25.8-57.8-57.7-57.8c-5.2,0-10.4,0.7-15.4,2.1l0.3,1l1-0.3
		c-13.1-47.5-62.1-75.4-109.6-62.4c-27.2,7.5-49.3,27.4-59.5,53.7l0.9,0.4l-0.1-1c-33.7,2.9-58.7,32.5-55.8,66.2
		c2.7,31.7,29.2,56.1,61,56.1l77.1-0.1h104.9v-1.2h-1l0.1,1c30.3-2,53.9-27.2,53.9-57.6h-2c0,29.3-22.7,53.6-52,55.6l-0.9,0.1v0.1
		h-103l-38,0.1l-39,0.1c-32.7,0.1-59.3-26.4-59.3-59.1c-0.1-30.9,23.6-56.6,54.3-59.1l0.6-0.1l0.2-0.6c17.5-44.9,68-67.1,112.8-49.6
		c25.7,10,45.1,31.5,52.4,58.1l0.3,1l1-0.3c29.7-8.2,60.4,9.3,68.6,39c1.3,4.8,2,9.8,2,14.8L677,344.1z"/>
	<path id="bae2915a-5729-4b50-ac3c-4745d86ff6aa" d="M452.1,386.7c-42.5,0-55.5-28.8-57.1-44.7c-3.9-38.7,23.1-56,23.1-56
		c-36.8,17.9-35.2,57.4-35.2,57.4c2.1,26.5,21.2,52.8,55.9,57.6c26.1,1,89.4,0.1,99.4-0.1l25,0.1c0,0,3.5-5.9,13.2-6.5
		s31.6,1.9,31.6,1.9l3.9-9.7L452.1,386.7z"/>
	<path id="f7fb73e8-0c5c-4330-807c-0c7df3a989fc" class="st0" d="M541,240.5c-5.6-1.1-11.3-1.6-17-1.6c-13.3-0.2-26.4,2.9-38.2,8.8
		c-13.5,7.1-26.3,19.7-34,41.1c-0.2,0.5,0.1,1.1,0.6,1.3c0.5,0.2,1.1-0.1,1.3-0.6c7.6-21,20-33.1,33.1-40
		c11.6-5.8,24.4-8.8,37.3-8.6c4,0,8,0.2,12,0.8c1.5,0.2,2.6,0.4,3.4,0.5l0.9,0.2h0.2h0.1c0.6,0.1,1.1-0.2,1.2-0.8
		C542,241.1,541.6,240.5,541,240.5L541,240.5z"/>
	<path id="f91ec240-ec0d-4ef8-9ae3-aab92695ddf3" class="st0" d="M647.9,308.2c-10-5.6-21.2-8.6-32.7-8.9
		c-7.1-0.1-14.1,1.5-20.5,4.6c-7.8,4-14.5,10.1-19.2,17.5c-0.3,0.5-0.2,1.1,0.3,1.4c0.5,0.3,1.1,0.2,1.4-0.3
		c4.6-7.1,10.9-12.9,18.4-16.8c6.1-3,12.8-4.5,19.6-4.4c7.6,0.1,15.2,1.6,22.3,4.3c2.3,0.9,4.6,1.9,6.8,3c0.8,0.4,1.4,0.7,1.9,1
		l0.5,0.3l0.1,0.1l0,0c0.5,0.3,1.1,0.1,1.4-0.4C648.5,309.2,648.3,308.6,647.9,308.2L647.9,308.2L647.9,308.2z"/>
	<path id="b671bc33-a8b1-4e70-8337-5b8ca09c5e04" d="M698.9,619c0,0,43.6-3.2,31.6,30.2h-58.3C672.3,649.2,679.4,621.6,698.9,619z"
		/>
	<path id="e455525f-331d-4635-bf8f-1246baef66fd" d="M146.2,651.3H824c0.6,0,1-0.4,1-1s-0.4-1-1-1H146.2c-0.6,0-1,0.4-1,1
		S145.7,651.3,146.2,651.3"/>
	<rect id="b82c97ab-a4ee-4916-96c4-80628a945472" x="240.3" y="360.4" class="st1" width="435.7" height="237.7"/>
	<path id="e6c67258-3a0a-4c2d-9c0f-bdd338ade6d6" d="M676.1,598v-1H241.4V361.4h433.7V598h2V359.3H239.3V599h437.8v-1L676.1,598z"/>
	<rect id="eea83ec5-a3f8-4fe9-bb30-f7e1ebef5ec4" x="256.6" y="373.7" class="st1" width="403.2" height="210.5"/>
	<path id="bc7f605e-b402-4a29-9b9c-02e1bebf2b1a" d="M659.8,584.3v-1H257.6V374.7h401.2v209.5h2V372.7H255.6v212.5h405.2v-1
		L659.8,584.3z"/>
	<path id="e3d69fb1-2899-4af3-a2dc-76f4e2938313" class="st1" d="M606,601.6c12,13,30.5,42.7,37.6,59.9c8.1-6.5,15-14.4,20.3-23.4
		c8.1-14.2,3-16.8,8.4-20.7c2.2-1.6,5.2-1.4,7.1,0.5c0.2-2.7,2.2-5.9,10.6-8.6c15-4.6,43.1,8.9,36,20.1s-26.5,21.9-29.5,32.1
		s-20.3,70.1-51.8,70.1S342,746.8,342,746.8l-31.4-91.6c0,0-25.9-66.6,49.1-90.9C431.5,541,562.4,554.5,606,601.6z"/>
	<path id="f98cdeb7-c4f7-4d2b-8b69-c36cfbc8aaf1" d="M606,601.6l-0.7,0.7c7.6,8.8,14.5,18.2,20.5,28.2c6.4,10,12.1,20.5,16.9,31.4
		l0.5,1.2l1-0.8c8.2-6.6,15.2-14.6,20.6-23.7c1.7-2.8,3-5.8,4.1-8.9c0.8-2.5,1.3-5.1,1.6-7.6c0.1-0.7,0.3-1.4,0.7-2.1
		c0.5-0.7,1.1-1.4,1.8-1.9c1.4-1.1,3.3-1.3,4.8-0.3c0.2,0.1,0.5,0.3,0.7,0.5l0.2,0.2l0.1,0.1l0.1,0.1l0.1,0.1c0.1,0,0.2,0.1,0.3,0.1
		c0.1,0,0.2,0,0.3-0.1c0.2-0.1,0.4-0.2,0.5-0.3c0.1-0.1,0.1-0.2,0.2-0.3v-0.1V618c0.1-1.4,0.8-2.7,1.9-3.6c2.3-1.9,5.1-3.3,8-4
		c2.1-0.6,4.3-0.9,6.5-0.9c6.9,0.2,13.6,2,19.6,5.3c2.6,1.4,5,3.2,7,5.3c1.5,1.5,2.5,3.5,2.6,5.7c0,1.1-0.4,2.2-1,3.2
		c-3.4,5.4-10,10.8-16.1,16.2c-3,2.5-5.8,5.2-8.4,8c-2.3,2.3-4,5.1-5.1,8.1c-0.8,2.6-2.4,8.2-4.9,15.2c-3.8,10.5-9.6,24.2-17.3,35.1
		c-3.5,5.2-7.9,9.9-13,13.6c-4.5,3.4-10,5.3-15.6,5.4c-7.9,0-30.8,1-60.6,2.4c-89.6,4.3-242.1,12.9-242.1,12.9l0.1,1l1-0.3
		l-31.4-91.6l0,0v-0.1c-2.8-8.2-4.2-16.8-4.2-25.4c-0.2-12.3,3.3-24.3,9.9-34.6c7.7-11.6,20.8-22.3,42.8-29.5
		c23-7.5,52.1-11.1,82.4-11.1c31.9-0.1,63.7,4,94.6,12.2c29.1,8.1,53.8,20.2,68.3,35.9L606,601.6l0.7-0.7
		c-15-16.2-40-28.3-69.3-36.5c-31-8.3-63-12.4-95.1-12.3c-30.5,0-59.8,3.7-83,11.2c-22.4,7.2-35.9,18.3-43.9,30.3
		c-6.9,10.6-10.4,23-10.2,35.7c0,8.9,1.5,17.8,4.4,26.3l1-0.4l-1,0.3l31.6,92.3h0.8l3.1-0.2c15-0.8,82.5-4.6,150-8.2
		c33.7-1.8,67.5-3.5,94.6-4.8s47.7-2.1,55-2.1c8.2,0,15.4-3.9,21.7-9.8c9.3-8.8,16.5-22.2,21.7-34.3c3.7-8.7,6.8-17.7,9.5-26.7
		c1-2.8,2.6-5.3,4.7-7.3c4.1-4.2,8.4-8.1,12.9-11.9c4.5-3.7,8.5-7.9,11.8-12.7c0.8-1.3,1.3-2.7,1.3-4.3c-0.2-2.6-1.3-5.1-3.1-7
		c-3.5-3.5-7.7-6.3-12.4-8c-5-2.1-10.4-3.2-15.8-3.3c-2.4,0-4.8,0.3-7.1,1c-3.2,0.8-6.2,2.4-8.8,4.5c-1.5,1.3-2.4,3.1-2.5,5l1,0.1
		l-1-0.3l1,0.3l-0.7-0.8c-0.1,0.1-0.2,0.3-0.3,0.4l1,0.3l-0.7-0.8l0.7,0.8l-0.3-1c-0.1,0-0.2,0.1-0.3,0.2l0.7,0.8l-0.3-1l0.3,1v-1
		c-0.1,0-0.2,0-0.3,0.1l0.3,1l0,0l0.3-0.9c-0.1,0-0.2-0.1-0.3-0.1v1l0.3-0.9l-0.3,0.9l0.5-0.8l-0.2-0.1l-0.3,0.9l0.5-0.8l-0.3,0.5
		l0.4-0.5l0,0l-0.3,0.5l0.4-0.5l0,0l-0.5-0.4c-1.1-0.9-2.5-1.4-4-1.4c-1.4,0-2.7,0.5-3.8,1.3c-1.2,0.8-2.2,2-2.8,3.3
		c-0.3,0.9-0.5,1.9-0.7,2.8c-0.2,1.9-0.6,3.8-1.1,5.6c-1,3.3-2.4,6.4-4.2,9.3c-3.6,6.1-7.9,11.8-13,16.8c-2,2-3.8,3.6-5,4.6
		l-1.5,1.2l-0.4,0.3l-0.1,0.1l0.6,0.8l0.9-0.4c-4.8-11-10.5-21.6-17-31.7c-6.1-10.1-13-19.6-20.8-28.5L606,601.6z"/>
	<path id="a6f04a84-653b-42ea-945c-a05dc83037d6" class="st1" d="M305.3,780.3c0-1-15.2-54.8-28.4-96.5s11.2-75.2,46.7-73.1
		s63,22.3,122.9,22.3s133.2-45.3,159.5,0c23.9,41.3,3,93.4-15.2,147.3"/>
	<path id="a5441384-ac51-4f98-8bdb-edb4ec1c07d8" d="M306.4,780.3c0-0.1,0-0.2,0-0.3c0-0.2-0.1-0.6-0.3-1.1c-1-4.1-5-18.3-10.3-36.3
		s-11.8-39.8-17.9-59.1c-2.3-7.2-3.5-14.6-3.6-22.1c0-14.5,4.9-26.9,13.1-35.7c8.6-9.1,20.6-14.2,33.1-14c1,0,2,0,3,0.1
		c17.6,1,33.3,6.6,52.1,11.9c23,6.9,46.9,10.5,70.9,10.4c20.1,0,41.7-5.1,62.4-10.1s40.6-10.1,57.4-10c7.7-0.2,15.4,1.2,22.5,4.3
		c6.9,3.3,12.6,8.6,16.3,15.3c7.3,12.9,10.9,27.6,10.6,42.4c0,31.8-13.5,67.5-25.9,104l1.9,0.6c12.4-36.5,26-72.3,26-104.7
		c0.3-15.2-3.4-30.2-10.9-43.4c-3.9-7.1-9.9-12.7-17.2-16.1c-7.4-3.2-15.3-4.7-23.4-4.5c-17.2,0-37.2,5.1-57.9,10.1
		s-42.1,10.1-61.9,10c-23.8,0-47.5-3.5-70.3-10.4c-18.8-5.3-34.6-10.9-52.5-12c-1-0.1-2.1-0.1-3.1-0.1c-13.1-0.2-25.7,5.1-34.6,14.7
		c-8.6,9.2-13.7,22.2-13.7,37.1c0.1,7.7,1.3,15.4,3.7,22.8c6.6,20.8,13.7,44.7,19.2,63.4c2.7,9.4,5,17.5,6.7,23.4
		c0.8,2.9,1.5,5.3,1.9,6.9c0.2,0.8,0.4,1.5,0.5,1.9c0.1,0.2,0.1,0.4,0.1,0.5v0.1l0,0l0.6-0.1h-0.6v0.1l0.6-0.1L306.4,780.3
		L306.4,780.3z"/>
	<path id="ae961138-382f-4466-b5db-d4eced7d9eb0" d="M359.6,617.9c0,0,0,3-15.1,0.4c-21.1-3.6-47.8,4.4-43,41.1
		c6,45.4,38.8,69.8,45,120.9h-41.2c0,0-20.6-73.8-28.4-96.5c-4.6-13.3-7.7-38.1,8.7-57.7S326.9,608.1,359.6,617.9z"/>
	<path id="f31b1cd1-cfd2-43f8-a05d-061ca26cc50c" class="st1" d="M663.9,638.1c0,0,27.5-5.5,38.6,14.7"/>
	<path id="a52d8485-24e8-4c61-99db-37a39402904d" d="M664.1,639.1L664.1,639.1c2.7-0.5,5.4-0.7,8.1-0.7c5.3-0.1,10.5,0.9,15.4,2.7
		c5.9,2.3,10.9,6.6,13.9,12.1l1.8-1c-3.3-6-8.6-10.6-15-13.1c-5.2-2-10.7-2.9-16.2-2.9c-2.9,0-5.7,0.2-8.5,0.7L664.1,639.1
		L664.1,639.1z"/>
	<path id="e50916e1-3cf8-4182-a246-0d1d62acdf97" class="st1" d="M643.6,661.5c0,0,3.9,7.4,9.9,19.5"/>
	<path id="fd71614a-3a00-450f-b2c2-3f17c1648ca6" d="M642.7,662l0.7,1.3c1.4,2.6,4.7,9.1,9.2,18.1c0.3,0.5,0.9,0.7,1.4,0.5
		c0.5-0.3,0.7-0.9,0.5-1.4l0,0c-6-12.1-10-19.5-10-19.5c-0.3-0.5-0.9-0.7-1.4-0.4C642.6,660.9,642.4,661.5,642.7,662L642.7,662z"/>
	<path id="bd9bb087-bd0d-4003-8656-a4c891877cfa" d="M256.6,380.7h378c0,0,18.9,2,18.9,18.6s0.6,185,0.6,185h6.3l-0.6-211.6H256.6
		V380.7z"/>
	<path id="eb5dbd6b-f9af-4451-8766-a737dbc6971c" class="st0" d="M320.9,410.2l277.6,111.7c0.5,0.2,1.1,0,1.3-0.6
		c0.2-0.5,0-1.1-0.6-1.3L321.7,408.3c-0.5-0.2-1.1,0-1.3,0.6S320.5,410,320.9,410.2"/>
	<path id="ba9dd635-c1df-4f88-8ccf-b7576ffc81a1" class="st0" d="M329.1,440.1L557,531.8c0.5,0.2,1.1-0.1,1.3-0.6c0,0,0,0,0,0
		c0.2-0.5,0-1.1-0.5-1.3l-227.9-91.7c-0.5-0.2-1.1,0-1.3,0.6S328.6,439.9,329.1,440.1"/>
	<path id="a40be0a4-a005-4c95-ba07-173466900417" d="M451.1,347.2c0,0-53.8-14.2-80.2,79.2s-51,134.3-54.4,184.5
		c8.4-5,28.1,3,28.1,3s-33.8-64.1,22-91.6c0,0-20.6,132.1,29.2,206.2l66.1,0.7c0,0-15.1-9.1-18-33.8c0,0,6.5,28.2,29.2,33.1
		c0,0,27.5,5,53.5-8.2c0,0-41.4-22.6-46.6-70.7c0,0,10.7,43.5,67.3,61.9c0,0-65.2-25.6-65.2-139.4c0,0,11.2,24.4,42.7,22.4
		s58.9-18.3,81.2,7.1c0,0,9.2-24.9-41.6-87.4C517.1,456.3,533.9,343.6,451.1,347.2z"/>
	<path id="e21ba065-73ce-44d8-a721-2c0e4ab3ada7" d="M451.1,347.1l0.3-1c-2.6-0.6-5.3-0.8-8-0.8c-8.1,0-21.4,2.1-35.2,13.4
		s-28.1,31.4-38.2,67.4c-13.2,46.7-25.9,80.2-35.8,108.4s-16.9,51-18.6,76.3c-0.1,0.6,0.4,1,0.9,1.1c0,0,0,0,0,0
		c0.2,0,0.4,0,0.6-0.1c2.2-1.1,4.6-1.6,7-1.5c4.6,0.2,9.1,0.9,13.4,2.3c2,0.6,3.7,1.2,4.9,1.6l1.4,0.5l0.4,0.1l0.1,0.1
		c0.5,0.2,1.1,0,1.3-0.5c0.1-0.3,0.1-0.6,0-0.9l0,0c-0.6-1.1-10-19.7-10-40.6c-0.2-9.4,2.1-18.6,6.5-26.8
		c4.8-8.6,12.6-16.5,25.1-22.6l-0.5-0.9l-1-0.1c-2.9,21.1-4.3,42.4-4.2,63.7c-0.2,24.4,2,48.8,6.5,72.9c5,25.2,13.3,49.9,27.1,70.4
		c0.2,0.3,0.5,0.4,0.8,0.4l66.1,0.7c0.6,0,1-0.4,1-1c0-0.4-0.2-0.7-0.5-0.9l0,0c-3-2.1-5.7-4.7-7.8-7.6c-5.5-7.4-8.8-16.2-9.7-25.4
		l-1,0.1l-1,0.2c1.4,5.3,3.5,10.3,6.2,15c2.4,4.3,5.5,8.1,9.2,11.4c4.2,3.7,9.2,6.3,14.6,7.4l0,0c4.4,0.7,8.8,1,13.2,0.9
		c14.2,0.1,28.2-3,40.9-9.2c0.5-0.2,0.7-0.8,0.5-1.3c0,0,0,0,0,0c-0.1-0.2-0.2-0.3-0.4-0.4l-0.1-0.1c-8.2-4.9-15.6-11.1-22-18.1
		c-13.3-14.2-21.7-32.3-23.9-51.7l-1,0.1l-1,0.2c2.7,8.8,7,17.1,12.6,24.4c9.9,13.3,26.9,28.9,55.4,38.2c0.5,0.2,1.1-0.1,1.3-0.6
		c0.2-0.5-0.1-1.1-0.6-1.3l0,0c-0.9-0.4-17-7.1-32.9-27.7s-31.6-55-31.6-110.8h-1l-0.9,0.4c2.3,4.4,5.3,8.3,9,11.6
		c8.5,7.6,19.5,11.8,30.9,11.5c1.2,0,2.5,0,3.8-0.1c8.8-0.8,17.5-2.1,26.1-3.9c7.8-1.7,15.7-2.7,23.7-3c5.5-0.1,10.9,0.9,16,2.9
		c5.7,2.4,10.7,6.1,14.6,10.9c0.4,0.4,1,0.5,1.4,0.1c0,0,0,0,0,0c0.1-0.1,0.2-0.3,0.3-0.4c0.5-1.9,0.8-3.9,0.7-5.9
		c0-10.7-5.1-36.5-42.5-82.5c-11.5-14.1-19.2-31.6-25.5-49.9c-9.4-27.4-15.7-56.7-27-79.2c-5.7-11.3-12.6-20.9-21.9-27.7
		s-21-10.7-35.9-10.7c-1.2,0-2.5,0-3.8,0.1l0,1l0.3-1l-0.3,1v1c1.3-0.1,2.5-0.1,3.7-0.1c8.5-0.2,17,1.5,24.9,4.8
		c12.3,5.4,21.1,14.9,28.1,27.1c10.5,18.3,16.8,42.6,24.2,67s16,49,31.4,67.9c37.2,45.7,42.1,71.1,42.1,81.2c0,1.3-0.1,2.7-0.3,4
		c-0.1,0.4-0.2,0.7-0.2,0.9l-0.1,0.2l0,0l0,0l1,0.4l0.8-0.7c-4.2-4.9-9.4-8.8-15.4-11.4c-5.3-2.1-11-3.2-16.7-3.1
		c-8.1,0.3-16.2,1.3-24.1,3.1c-8.5,1.9-17.2,3.2-25.9,3.9c-1.2,0.1-2.4,0.1-3.6,0.1c-10.9,0.3-21.5-3.7-29.6-11
		c-2.5-2.2-4.6-4.8-6.5-7.5c-0.7-1-1.2-1.9-1.5-2.5l-0.4-0.7l-0.1-0.2l0,0l0,0c-0.2-0.5-0.7-0.8-1.3-0.6c-0.4,0.2-0.7,0.6-0.7,1
		c0,57.1,16.4,92.2,32.8,113s32.9,27.3,33,27.4l0.4-0.9l0.3-1c-28.1-9.1-44.7-24.4-54.4-37.4c-3.9-5.2-7.2-10.8-9.8-16.8
		c-0.9-2.1-1.6-3.9-2-5.1c-0.2-0.6-0.3-1.1-0.4-1.4l-0.1-0.4v-0.1l0,0c-0.1-0.6-0.6-0.9-1.2-0.8c-0.6,0.1-0.9,0.6-0.8,1.2
		c2.3,20.3,11.3,39.3,25.5,54c6.3,6.8,13.6,12.7,21.6,17.5l0.5-0.9l-0.5-0.9c-12.5,6.1-26.1,9.1-40,9c-3.1,0-6.3-0.1-9.4-0.5
		c-1.1-0.1-2-0.2-2.6-0.3l-0.7-0.1h-0.2h-0.1l-0.2,1l0.2-1c-5.1-1.1-9.8-3.5-13.7-7c-5-4.6-8.9-10.1-11.5-16.3
		c-0.9-2.1-1.8-4.2-2.5-6.4c-0.2-0.8-0.4-1.5-0.5-1.9c-0.1-0.2-0.1-0.4-0.1-0.5v-0.1l0,0c-0.1-0.6-0.6-0.9-1.2-0.8
		c-0.6,0.1-0.9,0.6-0.8,1.2c0.9,9.7,4.5,18.9,10.3,26.6c2.3,3.1,5,5.7,8.2,7.9l0.5-0.9v-1l-66.1-0.7v1l0.8-0.6
		c-13.5-20.1-21.8-44.6-26.8-69.6c-4.5-23.9-6.6-48.2-6.5-72.5c0-18.2,1-34.1,2.1-45.4c0.5-5.6,1-10.2,1.4-13.3
		c0.2-1.5,0.4-2.7,0.5-3.5s0.2-1.2,0.2-1.2c0.1-0.5-0.3-1.1-0.8-1.1c0,0,0,0,0,0c-0.2,0-0.4,0-0.6,0.1c-12.8,6.3-21,14.5-26,23.5
		c-4.6,8.5-6.9,18.1-6.8,27.8c0,22.2,10.2,41.6,10.3,41.6l0.9-0.5l0.4-0.9c0,0-2.9-1.2-7-2.4c-4.5-1.4-9.2-2.2-14-2.4
		c-2.8-0.1-5.5,0.5-8,1.8l0.5,0.9l1,0.1c1.7-24.9,8.6-47.6,18.5-75.7s22.6-61.8,35.9-108.5c10.1-35.7,24.1-55.5,37.5-66.4
		s26.2-12.9,34-12.9c1.9,0,3.7,0.1,5.5,0.4c0.6,0.1,1.1,0.2,1.5,0.3l0.4,0.1h0.1l0,0c0.1,0,0.2,0,0.3,0L451.1,347.1z"/>
	<path id="edeb1551-6dcf-4a1e-9bd9-b3f2106a8b08" d="M606,634.1c0,0,8.7,13.1,13.7,41.1c4.7,26.5,25.1,40.6,42.5,28.5
		s25.3-45.7,38.2-54l2,3.1c0,0-3.7,3-8.4,16.2s-12.1,35-24.4,48.7s-17.6,13.6-28.4,13.9s-35.4,1.3-35.4,1.3S625.9,673.6,606,634.1z"
		/>
	<path id="a792412b-9349-4e51-9121-8777fe1f73dd" class="st0" d="M528.4,635l0.2-0.1c10.3-3.7,21.2-5.6,32.1-5.9
		c9.5,0,19.2,1.9,26.6,7.9c4,3.3,7,7.5,8.9,12.3c2.5,6.5,3.6,13.4,3.5,20.4c0,0.5,0,1,0,1.5c0,0.6,0.4,1,1,1s1-0.4,1-1l0,0
		c0-0.5,0-1.1,0-1.6c0.2-7.2-1-14.4-3.6-21.1c-2.9-7.5-8.6-13.6-15.8-17.1c-6.8-3.1-14.1-4.6-21.6-4.4c-11.3,0.2-22.4,2.3-33,6.1
		c-0.5,0.2-0.8,0.8-0.6,1.3S527.8,635.2,528.4,635L528.4,635z"/>
	<path id="afa0cfe8-9a5c-4e42-8843-46b7301ccaca" class="st0" d="M599.6,680.9c0,0,0,0.3,0,0.9c-0.1,2-0.5,7.3-1.5,13.5
		c-0.9,6.4-2.6,12.8-5,18.8c-0.2,0.5,0,1.1,0.5,1.3c0.5,0.2,1.1,0,1.3-0.5l0,0c2.8-7,4.7-14.4,5.6-21.9c1-6.8,1.2-12,1.2-12
		c0-0.6-0.4-1-0.9-1.1S599.7,680.4,599.6,680.9L599.6,680.9z"/>
	<path id="bd2bbe00-57b9-486a-99c5-561620aa3b77" d="M451.1,347.2c0,0-48.8-5.1-56,130.7c-3.6,68.7-16.7,137.4,0.5,195.9
		c10.8,36.6,37.1,48.5,66.1,56.4l-18.8-0.7h-55c0,0-43.4-26.5-43.4-115.6c0,0-9.5-9.3-37.3-1.1c0,0,4.3-31.6,22.3-70.2
		c23.3-49.9,34.1-82.3,42-118.6S406.2,344.1,451.1,347.2z"/>
	<path id="f603b62a-f154-4345-8a22-d2baf958702d" d="M485.4,468.1c-3.5,34.6-4.6,69.3-3.3,104c13.9,34.3,59.9,20.1,59.9,20.1
		s51.8-14.8,64,9.4l0,0v-1.4c0,0-13-35.4-71.1-25.3C490.5,582.6,481.8,540,485.4,468.1z"/>
	<path id="ab3b1293-0286-42f7-9ecf-b472de04c77c" d="M483.1,572.1V571c0-8.9,0.1-70.6,3.3-105.8c0.1-0.5-0.3-1-0.9-1.1c0,0,0,0,0,0
		c-0.5-0.1-1,0.3-1.1,0.9c0,0,0,0,0,0l0,0c-3.2,35.3-3.3,97-3.3,105.9v1.1c0,0.6,0.4,1,1,1S483.1,572.7,483.1,572.1L483.1,572.1z"/>
	<path id="aa0a811e-1633-446c-9977-6e9d2ddc24fa" d="M443.1,690.4c4.8,7.8,26.2,36.4,79.8,30.4c0.3-0.1,0.6,0.1,0.6,0.4
		c0.1,0.3-0.1,0.6-0.4,0.6c-9,3.6-34.6,12.2-56.2,4.8c-9.7-3.5-17.4-11.2-21.1-20.9c-2-4.8-3.3-9.8-3.7-15c0-0.3,0.2-0.5,0.5-0.6
		C442.8,690.1,443,690.2,443.1,690.4z"/>
	<path id="ac8aa186-2f5d-4a73-b489-d1b8d4acd9c5" d="M479.9,649.7c0,0,14.4,33.9,34.1,34.1c0,0,20.2,24.5,33.2,27.8
		C547.3,711.5,494.9,700,479.9,649.7z"/>
	<path id="a473096e-fd0c-4f5c-a3ce-2f5e55fe1e36" class="st1" d="M462.6,679.9l-0.2,0.2L462.6,679.9L462.6,679.9l-0.2,0.2
		L462.6,679.9c-0.1-0.1-19.9-24.7-19.9-124.7c0-9,0.2-18.6,0.5-28.8c0-0.6-0.4-1-1-1c-0.6,0-1,0.4-1,1l0,0
		c-0.4,10.3-0.5,19.9-0.5,28.9c0,101.1,20.2,125.7,20.4,126c0.4,0.4,1,0.5,1.4,0.1C462.9,681,463,680.4,462.6,679.9L462.6,679.9z"/>
	<path id="f7d44624-35d1-411a-a683-787ef3198dc4" class="st1" d="M452.7,554.3c0,0,0-0.8-0.1-2.3c-0.1-4.5-0.4-15.3-0.4-29.8
		c0-9.7,0.1-21,0.5-33.2c0-0.6-0.4-1-1-1c-0.6,0-1,0.4-1,0.9c0,0,0,0,0,0.1c-0.4,12.2-0.5,23.6-0.5,33.3c0,19.4,0.5,32.1,0.5,32.1
		c0,0.6,0.5,1,1,1C452.3,555.4,452.7,554.9,452.7,554.3L452.7,554.3L452.7,554.3z"/>
	<path id="a1d7ca9d-1713-41e5-8677-a42918526453" class="st1" d="M469.6,367.5L469.6,367.5c0.2,0,7.1,0.2,15.1,8
		s17.3,23.4,22.1,54.4c4.2,27.2,8,46.7,14.5,62.9s15.6,29,30.3,42.8c0.4,0.4,1,0.4,1.4,0c0,0,0,0,0,0c0.4-0.4,0.4-1,0-1.4
		c0,0,0,0,0,0l0,0c-14.6-13.6-23.5-26.1-29.8-42.1s-10.2-35.3-14.4-62.4c-4.9-31.8-14.5-47.8-23-55.9s-15.9-8.2-16.1-8.2
		c-0.6,0-1,0.4-1,1S469.1,367.5,469.6,367.5L469.6,367.5z"/>
	<path id="ae504113-5e68-4665-881b-7390efb7323f" d="M482.8,614.3c0,0,3.9,1.5,30.8-1.3c25.2-2.6,77.8-14.7,92.4,20.1
		c0,0-12.1-32.8-71-16.9c-51.2,13.8-48.2,11.9-48.2,11.9L482.8,614.3z"/>
</g>
</svg>
