<?xml version="1.0" encoding="UTF-8" standalone="no"?>
<svg
   xmlns:dc="http://purl.org/dc/elements/1.1/"
   xmlns:cc="http://creativecommons.org/ns#"
   xmlns:rdf="http://www.w3.org/1999/02/22-rdf-syntax-ns#"
   xmlns:svg="http://www.w3.org/2000/svg"
   xmlns="http://www.w3.org/2000/svg"
   xmlns:sodipodi="http://sodipodi.sourceforge.net/DTD/sodipodi-0.dtd"
   xmlns:inkscape="http://www.inkscape.org/namespaces/inkscape"
   viewBox="0 0 16 22"
   version="1.1"
   id="svg5753"
   sodipodi:docname="icon-refresh.svg"
   inkscape:version="1.0.2 (394de47547, 2021-03-26)">
  <metadata
     id="metadata5759">
    <rdf:RDF>
      <cc:Work
         rdf:about="">
        <dc:format>image/svg+xml</dc:format>
        <dc:type
           rdf:resource="http://purl.org/dc/dcmitype/StillImage" />
      </cc:Work>
    </rdf:RDF>
  </metadata>
  <defs
     id="defs5757" />
  <sodipodi:namedview
     pagecolor="#ffffff"
     bordercolor="#666666"
     borderopacity="1"
     objecttolerance="10"
     gridtolerance="10"
     guidetolerance="10"
     inkscape:pageopacity="0"
     inkscape:pageshadow="2"
     inkscape:window-width="2398"
     inkscape:window-height="1340"
     id="namedview5755"
     showgrid="false"
     inkscape:zoom="45.818182"
     inkscape:cx="7.094246"
     inkscape:cy="11"
     inkscape:window-x="72"
     inkscape:window-y="27"
     inkscape:window-maximized="0"
     inkscape:current-layer="svg5753" />
  <path
     fill="#424242"
     d="m12.901149,9.091851l-0.094,0.071c-0.269,0.333 -0.746,1.096 -0.91,2.375c0.057,0.277 0.092,0.495 0.092,0.545c0,2.206 -1.794,4 -4,4a3.986,3.986 0 0 1 -2.817,-1.164a3.987,3.987 0 0 1 -1.163,-2.815c0,-2.206 1.794,-4 4,-4l0.351,0.025l0,1.85s1.626,-1.342 1.631,-1.339l1.869,-1.577l-3.5,-2.917l0,2.218l-0.371,-0.03a5.75,5.75 0 0 0 -4.055,9.826a5.75,5.75 0 0 0 9.826,-4.056a5.725,5.725 0 0 0 -0.859,-3.012z"
     id="path5751"
     style="fill:#6f6f6f;fill-opacity:1" />
</svg>
