<?xml version="1.0" encoding="UTF-8" standalone="no"?>
<svg
   xmlns:osb="http://www.openswatchbook.org/uri/2009/osb"
   xmlns:dc="http://purl.org/dc/elements/1.1/"
   xmlns:cc="http://creativecommons.org/ns#"
   xmlns:rdf="http://www.w3.org/1999/02/22-rdf-syntax-ns#"
   xmlns:svg="http://www.w3.org/2000/svg"
   xmlns="http://www.w3.org/2000/svg"
   xmlns:sodipodi="http://sodipodi.sourceforge.net/DTD/sodipodi-0.dtd"
   xmlns:inkscape="http://www.inkscape.org/namespaces/inkscape"
   width="16"
   height="16"
   viewBox="0 0 16 16"
   version="1.1"
   id="svg276"
   sodipodi:docname="users.svg"
   inkscape:version="1.0.2 (394de47547, 2021-03-26)">
  <metadata
     id="metadata282">
    <rdf:RDF>
      <cc:Work
         rdf:about="">
        <dc:format>image/svg+xml</dc:format>
        <dc:type
           rdf:resource="http://purl.org/dc/dcmitype/StillImage" />
        <dc:title></dc:title>
      </cc:Work>
    </rdf:RDF>
  </metadata>
  <defs
     id="defs280">
    <linearGradient
       id="linearGradient3097"
       osb:paint="solid">
      <stop
         style="stop-color:#000000;stop-opacity:1;"
         offset="0"
         id="stop3095" />
    </linearGradient>
    <linearGradient
       id="linearGradient3091"
       osb:paint="solid">
      <stop
         style="stop-color:#000000;stop-opacity:1;"
         offset="0"
         id="stop3089" />
    </linearGradient>
  </defs>
  <sodipodi:namedview
     pagecolor="#ffffff"
     bordercolor="#666666"
     borderopacity="1"
     objecttolerance="10"
     gridtolerance="10"
     guidetolerance="10"
     inkscape:pageopacity="0"
     inkscape:pageshadow="2"
     inkscape:window-width="1459"
     inkscape:window-height="814"
     id="namedview278"
     showgrid="false"
     inkscape:zoom="16.197165"
     inkscape:cx="11.971148"
     inkscape:cy="1.7673973"
     inkscape:window-x="1099"
     inkscape:window-y="357"
     inkscape:window-maximized="0"
     inkscape:current-layer="svg276" />
  <path
     d="m 5.132772,8.0000188 q -1.2655629,0.039094 -2.0702392,1 H 2.0156003 q -0.6406097,0 -1.0781519,-0.3164048 Q 0.5,8.3672093 0.5,7.7578284 q 0,-2.757819 0.9687429,-2.757819 0.046876,0 0.3398522,0.1640666 0.2929761,0.1640572 0.7617378,0.3320333 0.4687617,0.1679667 0.9296483,0.1679667 0.5234193,0 1.0390573,-0.1796857 -0.039376,0.2890571 -0.039376,0.5156191 0,1.0859427 0.6327346,2.0000094 z m 8.367209,4.9765712 q 0,0.937505 -0.570295,1.480481 -0.570296,0.542967 -1.5156,0.542967 H 4.5859146 q -0.9453049,0 -1.5156004,-0.542967 -0.5702956,-0.542976 -0.5702956,-1.480481 0,-0.414056 0.027189,-0.808595 0.027189,-0.394529 0.1094089,-0.851562 Q 2.7181805,10.8594 2.843621,10.468771 2.9686866,10.078152 3.1795356,9.7070521 3.3904784,9.3359615 3.663954,9.0742425 3.9374296,8.8125235 4.3319395,8.6562664 4.7264493,8.5000188 5.2029926,8.5000188 q 0.077815,0 0.3360083,0.1679667 0.2578189,0.1679761 0.5702955,0.3750093 0.3124766,0.207024 0.835896,0.375 0.5234193,0.1679668 1.0547139,0.1679668 0.5312945,0 1.0547138,-0.1679668 0.5234189,-0.167976 0.8358949,-0.375 0.312477,-0.2070332 0.570296,-0.3750093 0.25782,-0.1679667 0.336009,-0.1679667 0.476543,0 0.871053,0.1562476 0.394509,0.1562571 0.667985,0.4179761 0.273476,0.261719 0.484419,0.6328096 0.210849,0.3710999 0.335914,0.7617189 0.124973,0.390629 0.207005,0.847662 0.08157,0.457033 0.109409,0.851562 0.02719,0.394539 0.02719,0.808595 z M 5.4999999,3.0000094 q 0,0.8281238 -0.5859521,1.4140666 -0.5859522,0.5859334 -1.4140666,0.5859334 -0.8281144,0 -1.4140666,-0.5859334 -0.5859522,-0.5859428 -0.5859522,-1.4140666 0,-0.8281333 0.5859522,-1.4140666 Q 2.6718668,1 3.4999812,1 4.3280956,1 4.9140478,1.5859428 5.4999999,2.1718761 5.4999999,3.0000094 Z m 5.4999821,3 q 0,1.2421904 -0.878928,2.1210999 Q 9.2422186,9.0000188 8,9.0000188 q -1.2422186,0 -2.121053,-0.8789095 Q 5.0000187,7.2421998 5.0000187,6.0000094 5.0000187,4.757819 5.878947,3.8789095 6.7577814,3.0000094 8,3.0000094 q 1.2422186,0 2.121054,0.8789001 0.878928,0.8789095 0.878928,2.1210999 z M 15.5,7.7578284 q 0,0.6093809 -0.437448,0.9257856 -0.437543,0.3164048 -1.078152,0.3164048 h -1.046933 q -0.804676,-0.9609335 -2.07024,-1 0.632829,-0.9140667 0.632829,-2.0000094 0,-0.226562 -0.03937,-0.5156191 0.515638,0.1796857 1.039058,0.1796857 0.460886,0 0.929648,-0.1679667 0.468762,-0.1679761 0.761738,-0.3320333 0.292975,-0.1640666 0.339852,-0.1640666 0.968743,0 0.968743,2.757819 z m -0.999962,-4.757819 q 0,0.8281238 -0.585953,1.4140666 -0.585952,0.5859334 -1.414066,0.5859334 -0.828114,0 -1.414067,-0.5859334 Q 10.5,3.8281332 10.5,3.0000094 10.5,2.1718761 11.085952,1.5859428 11.671905,1 12.500019,1 q 0.828114,0 1.414066,0.5859428 0.585953,0.5859333 0.585953,1.4140666 z"
     id="path274"
     style="display:inline;stroke-width:0.00781253;fill-opacity:1;fill-rule:evenodd;fill:#6f6f6f" />
</svg>
