<?xml version="1.0" encoding="UTF-8" standalone="no"?>
<svg
   xmlns:dc="http://purl.org/dc/elements/1.1/"
   xmlns:cc="http://creativecommons.org/ns#"
   xmlns:rdf="http://www.w3.org/1999/02/22-rdf-syntax-ns#"
   xmlns:svg="http://www.w3.org/2000/svg"
   xmlns="http://www.w3.org/2000/svg"
   xmlns:sodipodi="http://sodipodi.sourceforge.net/DTD/sodipodi-0.dtd"
   xmlns:inkscape="http://www.inkscape.org/namespaces/inkscape"
   version="1.1"
   id="Layer_1"
   x="0px"
   y="0px"
   viewBox="0 0 16 16"
   enable-background="new 0 0 64 64"
   xml:space="preserve"
   sodipodi:docname="workspace-new.svg"
   width="16"
   height="16"
   inkscape:version="1.0.2 (394de47547, 2021-03-26)"><metadata
   id="metadata23"><rdf:RDF><cc:Work
       rdf:about=""><dc:format>image/svg+xml</dc:format><dc:type
         rdf:resource="http://purl.org/dc/dcmitype/StillImage" /><dc:title /></cc:Work></rdf:RDF></metadata><defs
   id="defs21" /><sodipodi:namedview
   pagecolor="#ffffff"
   bordercolor="#666666"
   borderopacity="1"
   objecttolerance="10"
   gridtolerance="10"
   guidetolerance="10"
   inkscape:pageopacity="0"
   inkscape:pageshadow="2"
   inkscape:window-width="2400"
   inkscape:window-height="1299"
   id="namedview19"
   showgrid="false"
   inkscape:zoom="44.547727"
   inkscape:cx="11.769227"
   inkscape:cy="7.3134409"
   inkscape:window-x="852"
   inkscape:window-y="163"
   inkscape:window-maximized="0"
   inkscape:current-layer="Layer_1"
   inkscape:document-rotation="0" />
<g
   id="g16"
   style="display:inline;fill:#6f6f6f;fill-opacity:1;stroke:#6f6f6f;stroke-opacity:1"
   transform="matrix(0.24615385,0,0,0.24615385,0.24162851,0.14344224)">
	<path
   d="M 45.8,0 H 10 C 7.8,0 6,1.8 6,4 v 56 c 0,2.2 1.8,4 4,4 h 44 c 2.2,0 4,-1.8 4,-4 V 11.1 Z M 47,6.5 50.8,10 H 47 Z M 10,60 V 4 h 33 v 10 h 11 v 46 z"
   id="path2"
   style="fill:#6f6f6f;fill-opacity:1;stroke:#6f6f6f;stroke-opacity:1" />
	<path
   id="polygon4"
   d="m 21.07289,27.503727 5.1,-5.5 -2.2,-2 -6.9,7.5 6.9,7.5 2.2,-2 z"
   style="fill:#6f6f6f;fill-opacity:1;stroke:#6f6f6f;stroke-opacity:1" />
	<path
   id="polygon6"
   d="m 43.07289,27.503727 -5.1,5.5 2.2,2 6.9,-7.5 -6.9,-7.5 -2.2,2 z"
   style="fill:#6f6f6f;fill-opacity:1;stroke:#6f6f6f;stroke-opacity:1" />
	<path
   id="rect8"
   d="m 29.45182,38.588927 -2.7855,-1.1142 7.9851,-19.96275 2.7855,1.1142 z"
   style="fill:#6f6f6f;fill-opacity:1;stroke:#6f6f6f;stroke-width:1.00003;stroke-opacity:1" />
	
	
	
</g>
<text
   xml:space="preserve"
   style="font-style:normal;font-weight:normal;font-size:7.50762px;line-height:1.25;font-family:sans-serif;fill:#6f6f6f;fill-opacity:1;stroke:none;stroke-width:0.938452;stroke-miterlimit:4;stroke-dasharray:none;stroke-opacity:1;"
   x="7.5428333"
   y="14.489588"
   id="text31"><tspan
     sodipodi:role="line"
     id="tspan29"
     x="7.5428333"
     y="14.489588"
     style="stroke-width:0.938452;fill:#6f6f6f;fill-opacity:1;">+</tspan></text></svg>
