<?xml version="1.0" encoding="UTF-8" standalone="no"?>
<svg
   viewBox="0 0 512 512"
   version="1.1"
   id="svg1"
   sodipodi:docname="paste-light.svg"
   inkscape:version="1.3 (0e150ed6c4, 2023-07-21)"
   xmlns:inkscape="http://www.inkscape.org/namespaces/inkscape"
   xmlns:sodipodi="http://sodipodi.sourceforge.net/DTD/sodipodi-0.dtd"
   xmlns="http://www.w3.org/2000/svg"
   xmlns:svg="http://www.w3.org/2000/svg">
  <defs
     id="defs1" />
  <sodipodi:namedview
     id="namedview1"
     pagecolor="#ffffff"
     bordercolor="#000000"
     borderopacity="0.25"
     inkscape:showpageshadow="2"
     inkscape:pageopacity="0.0"
     inkscape:pagecheckerboard="0"
     inkscape:deskcolor="#d1d1d1"
     inkscape:zoom="1.4160156"
     inkscape:cx="255.6469"
     inkscape:cy="256"
     inkscape:window-width="1920"
     inkscape:window-height="963"
     inkscape:window-x="0"
     inkscape:window-y="0"
     inkscape:window-maximized="1"
     inkscape:current-layer="svg1" />
  <!--!Font Awesome Free 6.5.2 by @fontawesome - https://fontawesome.com License - https://fontawesome.com/license/free Copyright 2024 Fonticons, Inc.-->
  <path
     d="M 180.3,152 H 160 c -17.65,0 -32,14.35 -32,32 v 136 c 0,17.65 14.35,32 32,32 h 48 v -24 h -48 c -4.4,0 -8,-3.6 -8,-8 V 184 c 0,-4.4 3.6,-8 8,-8 h 8 c 0,8.85 7.15,16 16,16 h 36.2 c 8.8,-9.8 21.6,-16 35.8,-16 h 31 c -3.55,-13.8 -16.1,-24 -31,-24 h -20.3 c -1.9,-13.55 -13.6,-24 -27.7,-24 -14.1,0 -25.8,10.45 -27.7,24 z m 19.7,4 a 8,8 0 1 1 16,0 8,8 0 1 1 -16,0 z m 152,204 h -96 c -4.4,0 -8,-3.6 -8,-8 V 224 c 0,-4.4 3.6,-8 8,-8 h 70.05 L 360,249.95 V 352 c 0,4.4 -3.6,8 -8,8 z m -96,24 h 96 c 17.65,0 32,-14.35 32,-32 V 249.95 C 384,243.6 381.45,237.5 376.95,233 L 343,199.05 C 338.5,194.55 332.4,192 326.05,192 H 256 c -17.65,0 -32,14.35 -32,32 v 128 c 0,17.65 14.35,32 32,32 z"
     id="path1"
     style="stroke-width:0.5;fill:#4e4e4e;fill-opacity:1" />
</svg>
