<svg data-name="Layer 1" width="24" height="24" xmlns="http://www.w3.org/2000/svg"><path d="M6.601 5.806l-.087-.083C5.91 5.141 5.44 4.47 5.157 3.673a1.81 1.81 0 01-.129-.689l.003-.068c.022-.31.229-.466.531-.392a1.312 1.312 0 01.275.105c.331.166.6.411.849.68a5.401 5.401 0 011.042 1.605.398.398 0 00.019.04c.003.007.01.011.027.026a8.465 8.465 0 013.889-1.194c-.008-.042-.014-.074-.022-.105a5.4 5.4 0 01-.127-1.774 4.036 4.036 0 01.213-1.045 1.504 1.504 0 01.263-.488.753.753 0 01.152-.135.337.337 0 01.385-.003.83.83 0 01.28.323 2.547 2.547 0 01.253.704 5.4 5.4 0 01.102 1.584 4.589 4.589 0 01-.167.956c.342.063.682.112 1.015.191a8.946 8.946 0 01.98.288 9.04 9.04 0 01.95.411c.304.152.594.334.898.506.01-.02.024-.045.034-.072a5.216 5.216 0 011.58-2.244 1.812 1.812 0 01.567-.33.828.828 0 01.176-.041c.301-.035.427.154.45.38a1.437 1.437 0 01-.038.497 4.22 4.22 0 01-.515 1.185c-.326.527-.712 1.001-1.204 1.384-.015.012-.027.025-.052.048a8.533 8.534 0 011.277 1.482.526.526 0 01-.082.014c-.508.001-1.017 0-1.525.002a.192.192 0 01-.153-.08 7.098 7.098 0 00-4.232-2.235 6.881 6.881 0 00-1.453-.056A7.027 7.028 0 007.706 6.66a6.723 6.723 0 00-.815.76.227.227 0 01-.185.085c-.486-.003-.972-.002-1.458-.002h-.103c.03-.116.328-.525.666-.89.252-.273.52-.532.79-.808zM18.985 16.691a8.479 8.479 0 01-1.15 1.304l.089.074a5.199 5.2 0 011.616 2.311 1.662 1.662 0 01.106.693.714.715 0 01-.036.177.346.346 0 01-.391.24 1.067 1.067 0 01-.325-.095 2.46 2.46 0 01-.44-.28 5.164 5.164 0 01-1.582-2.241l-.034-.09a9.343 9.343 0 01-1.2.672 8.72 8.72 0 01-1.282.467 9.003 9.003 0 01-1.358.258c.008.04.012.073.02.104a5.24 5.24 0 01.143 1.75 3.879 3.879 0 01-.212 1.078 3.756 3.756 0 01-.2.42.643.643 0 01-.112.142c-.191.198-.42.2-.606-.004a1.31 1.31 0 01-.187-.27c-.148-.276-.224-.578-.278-.885a5.61 5.61 0 01-.065-1.27 4.535 4.535 0 01.138-.922.982.982 0 00.018-.077c.001-.007-.003-.014-.008-.035a8.454 8.454 0 01-3.886-1.2l-.053.117a5.303 5.303 0 01-1.484 1.989 1.832 1.832 0 01-.578.334.58.58 0 01-.313.033.342.342 0 01-.259-.215c-.068-.165-.056-.336-.033-.505a2.662 2.662 0 01.207-.684 5.4 5.4 0 011.272-1.813c.022-.02.045-.04.067-.062a.18.18 0 00.017-.032 8.587 8.588 0 01-1.366-1.503c.047-.004.079-.009.11-.009.505 0 1.01.001 1.514-.002a.226.226 0 01.178.078 7.053 7.054 0 001.891 1.387 6.717 6.718 0 002.386.709q3.393.33 5.837-2.057a.367.367 0 01.287-.118c.471.006.942.002 1.412.002h.122zM16.883 9.484c.134 0 .263.009.39-.002.143-.013.246.038.351.135.605.558 1.217 1.109 1.827 1.662l.101.09c.037-.032.071-.06.104-.09q.943-.858 1.884-1.718a.261.261 0 01.202-.079c.154.006.31.002.472.002v5.058c-.083.024-1.194.03-1.327.003v-2.561l-.025-.012-1.308 1.192-1.318-1.187-.025.009v2.568h-1.317c-.025-.085-.036-4.783-.011-5.07zM4.734 9.49h1.309c.026.084.031 4.942.005 5.065h-1.31c-.007-.322-.002-.643-.003-.963v-.962H3.113v1.908c-.099.03-1.216.032-1.327.006V9.49h1.322v1.785c.094.028 1.484.033 1.626.006v-.435-.456-.444-.457zM7.611 14.553V9.505c.078-.026 2.954-.036 3.143-.01v1.075c-.043.003-.086.01-.13.01H8.945v.837h1.6v1.113H8.96c-.026.095-.034.76-.012.943.04.003.084.008.127.008h1.68v1.072zM12.253 14.555c-.024-.136-.019-4.973.005-5.065h1.304v3.733c.056.003.1.007.145.007H15.395v1.325z"/></svg>
