<?xml version="1.0" encoding="UTF-8" standalone="no"?>
<svg
   xmlns:dc="http://purl.org/dc/elements/1.1/"
   xmlns:cc="http://creativecommons.org/ns#"
   xmlns:rdf="http://www.w3.org/1999/02/22-rdf-syntax-ns#"
   xmlns:svg="http://www.w3.org/2000/svg"
   xmlns="http://www.w3.org/2000/svg"
   xmlns:sodipodi="http://sodipodi.sourceforge.net/DTD/sodipodi-0.dtd"
   xmlns:inkscape="http://www.inkscape.org/namespaces/inkscape"
   width="16"
   height="16"
   viewBox="0 0 16 16"
   version="1.1"
   id="svg5070"
   sodipodi:docname="icon-login.svg"
   inkscape:version="1.0.2 (394de47547, 2021-03-26)">
  <metadata
     id="metadata5076">
    <rdf:RDF>
      <cc:Work
         rdf:about="">
        <dc:format>image/svg+xml</dc:format>
        <dc:type
           rdf:resource="http://purl.org/dc/dcmitype/StillImage" />
        <dc:title></dc:title>
      </cc:Work>
    </rdf:RDF>
  </metadata>
  <defs
     id="defs5074" />
  <sodipodi:namedview
     pagecolor="#ffffff"
     bordercolor="#666666"
     borderopacity="1"
     objecttolerance="10"
     gridtolerance="10"
     guidetolerance="10"
     inkscape:pageopacity="0"
     inkscape:pageshadow="2"
     inkscape:window-width="3768"
     inkscape:window-height="1536"
     id="namedview5072"
     showgrid="false"
     inkscape:zoom="50.911688"
     inkscape:cx="14.111983"
     inkscape:cy="11.755542"
     inkscape:window-x="72"
     inkscape:window-y="27"
     inkscape:window-maximized="1"
     inkscape:current-layer="svg5070" />
  <path
     d="m 12.33702,8.03242 q 0,0.27083 -0.19791,0.46874 l -5.66652,5.666519 q -0.19791,0.19791 -0.46874,0.19791 -0.27083,0 -0.46874,-0.19791 -0.19791,-0.19791 -0.19791,-0.46873 v -2.99993 H 0.67065001 q -0.27083,0 -0.46874,-0.19791 Q 0.004,10.303199 0.004,10.032369 V 6.03247 q 0,-0.27083 0.19791001,-0.46874 0.19791,-0.19791 0.46874,-0.19791 H 5.3372 V 2.36589 q 0,-0.27082 0.19791,-0.46873 0.19791,-0.19791 0.46874,-0.19791 0.27083,0 0.46874,0.19791 l 5.66652,5.66652 q 0.19791,0.19791 0.19791,0.46874 z M 16.0036,4.36585 v 7.333139 q 0,1.23956 -0.88019,2.11974 -0.88018,0.88019 -2.11974,0.88019 H 9.67042 q -0.13541,0 -0.23436,-0.099 -0.099,-0.099 -0.099,-0.23437 0,-0.0417 -0.0104,-0.20832 -0.0104,-0.16667 -0.005,-0.27604 0.005,-0.10937 0.0312,-0.24478 0.026,-0.13542 0.10417,-0.20312 0.0781,-0.0677 0.21353,-0.0677 h 3.33325 q 0.68749,0 1.17706,-0.48957 0.48957,-0.48957 0.48957,-1.17706 V 4.36582 q 0,-0.68749 -0.48957,-1.17706 Q 13.6913,2.69919 13.00381,2.69919 H 9.7539 L 9.63411,2.68879 9.51432,2.65759 9.43102,2.60029 9.35812,2.50659 9.33732,2.36596 q 0,-0.0417 -0.0104,-0.20832 Q 9.31652,1.99097 9.32192,1.8816 9.32692,1.77223 9.35312,1.63682 9.37912,1.5014 9.45729,1.4337 9.53539,1.366 9.67082,1.366 h 3.33325 q 1.23956,0 2.11974,0.88019 0.88019,0.88018 0.88019,2.11974 z"
     id="path5068"
     style="stroke-width:0.0104164;fill:#c5c5c5;fill-opacity:1" />
</svg>
