<?xml version="1.0" encoding="UTF-8" standalone="no"?>
<svg
   xmlns:dc="http://purl.org/dc/elements/1.1/"
   xmlns:cc="http://creativecommons.org/ns#"
   xmlns:rdf="http://www.w3.org/1999/02/22-rdf-syntax-ns#"
   xmlns:svg="http://www.w3.org/2000/svg"
   xmlns="http://www.w3.org/2000/svg"
   xmlns:sodipodi="http://sodipodi.sourceforge.net/DTD/sodipodi-0.dtd"
   xmlns:inkscape="http://www.inkscape.org/namespaces/inkscape"
   id="Layer_1"
   data-name="Layer 1"
   viewBox="0 0 29.000057 28"
   version="1.1"
   sodipodi:docname="logo.svg"
   width="29.000059"
   height="28"
   inkscape:version="0.92.3 (2405546, 2018-03-11)">
  <metadata
     id="metadata3833">
    <rdf:RDF>
      <cc:Work
         rdf:about="">
        <dc:format>image/svg+xml</dc:format>
        <dc:type
           rdf:resource="http://purl.org/dc/dcmitype/StillImage" />
        <dc:title>OpenShift</dc:title>
      </cc:Work>
    </rdf:RDF>
  </metadata>
  <sodipodi:namedview
     pagecolor="#ffffff"
     bordercolor="#666666"
     borderopacity="1"
     objecttolerance="10"
     gridtolerance="10"
     guidetolerance="10"
     inkscape:pageopacity="0"
     inkscape:pageshadow="2"
     inkscape:window-width="1600"
     inkscape:window-height="1137"
     id="namedview3831"
     showgrid="false"
     fit-margin-top="0"
     fit-margin-left="0"
     fit-margin-right="0"
     fit-margin-bottom="0"
     inkscape:zoom="19.628177"
     inkscape:cx="8.7837697"
     inkscape:cy="5.4744905"
     inkscape:window-x="-8"
     inkscape:window-y="-8"
     inkscape:window-maximized="1"
     inkscape:current-layer="Layer_1" />
  <defs
     id="defs3776">
    <style
       id="style3774">.cls-1{fill:#a30000;}.cls-2{fill:#c00;}.cls-3{fill:#820000;}</style>
  </defs>
  <title
     id="title3778">OpenShift</title>
  <g
     id="g3729"
     transform="matrix(0.24873544,0,0,0.24873544,0,0.69168692)">
    <path
       style="fill:#a30000"
       inkscape:connector-curvature="0"
       id="path3780"
       d="m 33.82,48.06028 -18.72,6.82 a 54.41,54.41 0 0 0 1.48,8.88 l 17.79,-6.48 a 34.89,34.89 0 0 1 -0.55,-9.22"
       class="cls-1" />
    <path
       style="fill:#a30000"
       inkscape:connector-curvature="0"
       id="path3782"
       d="m 116.59,27.36028 a 53.48,53.48 0 0 0 -4.59,-7.76 l -18.72,6.82 a 34.81,34.81 0 0 1 5.5,7.41 z"
       class="cls-1" />
    <path
       style="fill:#cc0000"
       inkscape:connector-curvature="0"
       id="path3784"
       d="m 75.39,22.05028 a 34.57,34.57 0 0 1 10.11,7.21 l 18.73,-6.81 a 53.52,53.52 0 0 0 -96.93,35.31 l 18.7,-6.86 a 34.7,34.7 0 0 1 49.36,-28.85"
       class="cls-2" />
    <path
       style="fill:#cc0000"
       inkscape:connector-curvature="0"
       id="path3786"
       d="M 17.75,63.33028 0,69.81028 a 54.22,54.22 0 0 0 8.36,18.13 l 18.64,-6.79 a 35,35 0 0 1 -9.26,-17.81"
       class="cls-2" />
    <path
       style="fill:#cc0000"
       inkscape:connector-curvature="0"
       id="path3788"
       d="m 95.36,56.27028 a 34.24,34.24 0 0 1 -3.14,12 34.82,34.82 0 0 1 -46.22,16.85 34.46,34.46 0 0 1 -10.14,-7.2 l -18.71,6.84 a 53.06,53.06 0 0 0 20.85,17.37 53.63,53.63 0 0 0 71.18,-25.91 53,53 0 0 0 4.82,-26.75 z"
       class="cls-2" />
    <path
       style="fill:#cc0000"
       inkscape:connector-curvature="0"
       id="path3790"
       d="m 100,33.41028 -17.79,6.48 a 34.93,34.93 0 0 1 4.36,19.59 l 18.69,-6.79 a 54,54 0 0 0 -5.26,-19.28"
       class="cls-2" />
    <path
       style="fill:#820000"
       inkscape:connector-curvature="0"
       id="path3792"
       d="m 33.75,51.83028 a 34.18,34.18 0 0 1 0.07,-3.76 l -18.72,6.81 c 0.09,1.2 0.25,2.39 0.43,3.58 z"
       class="cls-3" />
    <path
       style="fill:#820000"
       inkscape:connector-curvature="0"
       id="path3794"
       d="m 113.87,22.43028 c -0.59,-1 -1.2,-1.9 -1.85,-2.82 l -18.72,6.81 a 31.55,31.55 0 0 1 2.3,2.65 z"
       class="cls-3" />
    <path
       style="fill:#a30000"
       inkscape:connector-curvature="0"
       id="path3796"
       d="m 17.15,84.76028 a 53.29,53.29 0 0 0 4.76,5.78 l 20.34,-7.42 a 34.41,34.41 0 0 1 -6.42,-5.17 z m 96.85,-35.29 -18.68,6.79 a 34.25,34.25 0 0 1 -1.58,8 l 20.34,-7.42 a 53,53 0 0 0 -0.07,-7.42"
       class="cls-1" />
  </g>
</svg>
